<svg version="1.1" id="Layer_1" xmlns="http://www.w3.org/2000/svg" xmlns:xlink="http://www.w3.org/1999/xlink" x="0px" y="0px"
	 width="100%" viewBox="0 0 1792 1792" enable-background="new 0 0 1792 1792" xml:space="preserve">
<path fill="#FFFFFF" opacity="1.000000" stroke="none" 
	d="
M837.000000,1.000010 
	C876.687561,1.000000 916.375122,1.000000 956.228333,1.380822 
	C961.991455,2.507723 967.573120,3.415910 973.189819,3.965871 
	C984.593689,5.082479 996.069641,5.605164 1007.418335,7.108620 
	C1021.870239,9.023197 1036.259521,11.476979 1050.613525,14.046782 
	C1066.661011,16.919777 1082.767334,19.639133 1098.620728,23.386780 
	C1134.395630,31.843723 1169.576660,42.321827 1204.177246,54.865738 
	C1234.516846,65.864868 1264.154297,78.454887 1293.035400,92.726578 
	C1312.620605,102.404533 1331.935791,112.793503 1350.590942,124.147598 
	C1375.469971,139.289825 1400.107300,154.944809 1423.907715,171.714600 
	C1453.927856,192.866791 1482.131714,216.466003 1508.894409,241.620316 
	C1524.981567,256.740601 1540.256592,272.771759 1555.268433,288.975403 
	C1568.618774,303.385712 1581.509399,318.269592 1593.861328,333.544250 
	C1607.318481,350.185852 1620.618286,367.037933 1632.755493,384.646912 
	C1659.979370,424.143799 1684.602661,465.232941 1704.977905,508.753693 
	C1709.948120,519.369995 1715.331909,529.815369 1719.799927,540.638794 
	C1726.640137,557.208679 1733.419189,573.844971 1739.193115,590.804138 
	C1747.609863,615.525146 1755.682129,640.394836 1762.849976,665.501160 
	C1770.773926,693.255676 1777.079956,721.433655 1781.070557,750.084473 
	C1783.173340,765.181702 1786.062012,780.176697 1787.881836,795.303772 
	C1789.447754,808.319275 1789.966187,821.459595 1791.078247,834.533630 
	C1791.152344,835.403992 1792.333618,836.180115 1793.000000,837.000000 
	C1793.000000,876.687561 1793.000000,916.375122 1792.619141,956.228333 
	C1791.492188,961.991089 1790.584106,967.572388 1790.034180,973.188721 
	C1788.917725,984.592651 1788.395142,996.068542 1786.891602,1007.417297 
	C1784.976929,1021.869202 1782.522827,1036.258545 1779.953247,1050.612549 
	C1777.080322,1066.660156 1774.361816,1082.766602 1770.613770,1098.619995 
	C1762.156006,1134.394409 1751.677856,1169.575195 1739.134521,1204.175903 
	C1728.135742,1234.515625 1715.544556,1264.152588 1701.274292,1293.034302 
	C1691.597168,1312.619751 1681.206665,1331.934448 1669.852417,1350.589600 
	C1654.710205,1375.468628 1639.056030,1400.106567 1622.286255,1423.906982 
	C1601.134033,1453.927246 1577.534668,1482.130981 1552.380493,1508.893921 
	C1537.260132,1524.981079 1521.229126,1540.256104 1505.025269,1555.267944 
	C1490.614990,1568.618164 1475.730957,1581.508667 1460.456421,1593.860474 
	C1443.814697,1607.317871 1426.962891,1620.618286 1409.353760,1632.755493 
	C1369.856689,1659.979248 1328.767334,1684.602417 1285.246582,1704.977661 
	C1274.630249,1709.947998 1264.184937,1715.331665 1253.361328,1719.799805 
	C1236.791504,1726.640137 1220.155151,1733.418823 1203.196045,1739.192871 
	C1178.474976,1747.609741 1153.605469,1755.681885 1128.499023,1762.849731 
	C1100.744507,1770.773560 1072.566406,1777.080322 1043.915405,1781.070557 
	C1028.818359,1783.173096 1013.823303,1786.062134 998.696289,1787.881958 
	C985.680786,1789.447876 972.540405,1789.965942 959.466370,1791.078247 
	C958.596008,1791.152100 957.819885,1792.333618 957.000000,1793.000000 
	C917.312439,1793.000000 877.624878,1793.000000 837.771667,1792.619141 
	C832.009094,1791.492188 826.428101,1790.583740 820.811951,1790.034058 
	C809.408020,1788.917480 797.932068,1788.394897 786.583313,1786.891479 
	C772.131348,1784.977051 757.742004,1782.523071 743.388000,1779.953247 
	C727.340454,1777.080200 711.233765,1774.362183 695.380371,1770.614014 
	C659.605957,1762.156006 624.425049,1751.678223 589.824402,1739.134888 
	C559.484619,1728.136108 529.847900,1715.544189 500.966064,1701.274048 
	C481.380524,1691.597046 462.065735,1681.206665 443.410553,1669.852539 
	C418.531464,1654.710571 393.893890,1639.056274 370.093689,1622.286377 
	C340.073547,1601.134155 311.869507,1577.535156 285.106628,1552.380859 
	C269.019379,1537.260620 253.744370,1521.229492 238.732407,1505.025757 
	C225.382111,1490.615479 212.491577,1475.731445 200.139694,1460.456787 
	C186.682419,1443.815186 173.382294,1426.963257 161.245132,1409.354248 
	C134.021378,1369.857178 109.397781,1328.768066 89.022324,1285.247192 
	C84.052071,1274.630981 78.668610,1264.185547 74.200653,1253.362061 
	C67.360504,1236.792114 60.581459,1220.155640 54.807442,1203.196533 
	C46.390621,1178.475220 37.940422,1153.693726 31.260136,1128.472900 
	C24.379045,1102.493774 19.243948,1076.028198 14.034712,1049.639282 
	C10.708817,1032.790771 8.254489,1015.742737 6.125029,998.694763 
	C4.500514,985.689209 4.033953,972.540405 2.921725,959.466431 
	C2.847687,958.596069 1.666335,957.819946 1.000007,957.000000 
	C1.000000,917.312439 1.000000,877.624878 1.380820,837.771667 
	C2.507720,832.008423 3.415888,826.426697 3.965852,820.809875 
	C5.082466,809.406006 5.605153,797.930115 7.108617,786.581421 
	C9.023190,772.129517 11.476946,757.740112 14.046757,743.386169 
	C16.919773,727.338684 19.639189,711.232544 23.386803,695.379089 
	C31.843685,659.604187 42.321869,624.423096 54.865810,589.822449 
	C65.864914,559.482971 78.454933,529.845459 92.726715,500.964386 
	C102.404739,481.379425 112.793571,462.064026 124.147636,443.409027 
	C139.289825,418.530029 154.944733,393.892761 171.714493,370.092407 
	C192.866776,340.072296 216.465881,311.868378 241.620209,285.105621 
	C256.740509,269.018463 272.771545,253.743423 288.975250,238.731583 
	C303.385498,225.381256 318.269440,212.490662 333.544067,200.138840 
	C350.185699,186.681564 367.037750,173.381668 384.646759,161.244461 
	C424.143707,134.020782 465.232788,109.397545 508.753448,89.022301 
	C519.369751,84.052025 529.815063,78.668289 540.638550,74.200279 
	C557.208435,67.360138 573.844727,60.581154 590.803833,54.807178 
	C615.525085,46.390457 640.395020,38.318092 665.501648,31.150131 
	C693.256104,23.226231 721.433960,16.919846 750.084717,12.929446 
	C765.181946,10.826754 780.176880,7.938113 795.303955,6.118288 
	C808.319397,4.552493 821.459656,4.033971 834.533569,2.921740 
	C835.403931,2.847699 836.180054,1.666340 837.000000,1.000010 
M1098.345459,1638.856445 
	C1121.853394,1627.371460 1144.118042,1613.839722 1165.665771,1598.993652 
	C1189.822266,1582.350464 1212.334961,1563.708984 1233.044434,1543.072388 
	C1247.841797,1528.326904 1261.612183,1512.467651 1274.984619,1496.392822 
	C1300.283081,1465.982056 1320.908691,1432.531250 1338.162720,1396.911133 
	C1355.702148,1360.701660 1368.835449,1323.026123 1377.891968,1283.863892 
	C1384.706787,1254.395630 1388.777588,1224.499634 1389.768921,1194.349854 
	C1390.882446,1160.479370 1390.365356,1126.608765 1385.168945,1092.918945 
	C1380.710205,1064.011963 1374.547974,1035.545898 1365.700684,1007.702148 
	C1355.046875,974.173462 1340.809448,942.173462 1323.784424,911.370605 
	C1303.342651,874.386047 1278.551758,840.557251 1249.897095,809.614746 
	C1233.057007,791.430176 1214.924561,774.537598 1195.587036,758.930176 
	C1163.628296,733.136169 1129.421875,710.995422 1092.261597,693.437744 
	C1090.830688,692.761597 1089.096069,690.510132 1089.211792,689.136780 
	C1089.990112,679.905151 1091.237915,670.713318 1092.320435,661.507080 
	C1093.885986,648.193054 1095.459106,634.879822 1096.994385,621.562317 
	C1098.454224,608.897583 1099.841187,596.224426 1101.312744,583.561035 
	C1102.841064,570.409912 1104.469360,557.270325 1105.985352,544.117737 
	C1107.464111,531.288147 1108.816162,518.443970 1110.298096,505.614746 
	C1111.817139,492.462982 1113.467285,479.326355 1114.983521,466.174255 
	C1116.462402,453.344696 1117.799561,440.498749 1119.281250,427.669495 
	C1120.800049,414.518188 1122.464355,401.383636 1123.980469,388.231995 
	C1125.459473,375.402008 1126.802124,362.556366 1128.258911,349.723724 
	C1129.807983,336.075684 1131.396851,322.431946 1133.014648,308.791840 
	C1134.100342,299.637604 1135.267212,290.492950 1136.376831,281.513916 
	C1140.461548,280.963715 1144.072266,280.557373 1147.655762,279.981384 
	C1166.355347,276.975769 1181.109741,267.453369 1192.111084,252.252945 
	C1201.653198,239.069000 1205.239746,224.118881 1204.041138,207.921463 
	C1202.627441,188.819672 1194.032593,173.442520 1179.868774,160.965134 
	C1164.973145,147.843155 1146.337769,146.023666 1127.794312,144.003967 
	C1114.790039,142.587570 1101.778076,141.235336 1088.783691,139.732483 
	C1072.837891,137.888290 1056.911987,135.870728 1040.967407,134.015289 
	C1028.302979,132.541580 1015.618530,131.241898 1002.951965,129.786453 
	C989.471008,128.237442 976.004639,126.561829 962.524536,125.004929 
	C950.023621,123.561119 937.505493,122.264885 925.008606,120.788010 
	C909.231934,118.923515 893.478638,116.859627 877.697632,115.033783 
	C861.908264,113.206947 846.063232,111.828003 830.304688,109.775970 
	C812.971375,107.518875 796.671692,109.312531 781.422485,118.725426 
	C756.515320,134.099823 745.295471,162.681839 750.520142,188.497711 
	C755.942261,215.289200 772.264465,233.071777 798.548828,241.290573 
	C801.231689,242.129471 802.419556,243.428329 801.999390,246.274460 
	C801.443542,250.040176 801.067993,253.832581 800.619263,257.614014 
	C799.078308,270.597534 797.518433,283.578857 796.005310,296.565613 
	C794.530029,309.227478 793.114563,321.896240 791.652100,334.559570 
	C790.114197,347.876923 788.538574,361.189880 787.003662,374.507538 
	C785.544067,387.171753 784.131653,399.841461 782.669006,412.505310 
	C781.130920,425.822540 779.538086,439.133453 778.006897,452.451447 
	C776.853271,462.484955 775.801636,472.530304 774.627991,482.561432 
	C773.127808,495.382935 771.487122,508.188141 770.023987,521.013733 
	C768.541199,534.010986 767.292786,547.035278 765.774353,560.028198 
	C763.949524,575.642273 761.904480,591.230652 760.035889,606.839783 
	C758.304504,621.302856 756.754578,635.788391 754.884216,650.232849 
	C754.712219,651.561157 752.970886,653.466919 751.663513,653.751770 
	C728.429810,658.813293 705.702271,665.480347 683.363098,673.674133 
	C652.327454,685.057556 622.752014,699.441101 594.346008,716.213806 
	C568.407532,731.529541 543.673096,748.722046 521.513550,769.152710 
	C502.455658,786.723877 483.563385,804.631775 466.183258,823.826294 
	C443.857391,848.482910 424.960358,875.868652 408.458740,904.839539 
	C392.449280,932.946350 378.581757,962.040161 368.015350,992.624878 
	C354.817169,1030.827515 344.766479,1069.765503 341.912689,1110.278198 
	C340.596619,1128.960938 338.487732,1147.638672 338.290894,1166.334961 
	C338.107941,1183.711914 339.622406,1201.141357 341.076843,1218.489868 
	C342.237335,1232.332642 343.816498,1246.200317 346.293335,1259.860474 
	C351.746368,1289.935059 359.535583,1319.415283 370.100555,1348.164062 
	C383.230835,1383.893311 399.853607,1417.871948 420.379913,1449.894653 
	C437.527222,1476.645752 456.039185,1502.447021 478.573181,1524.993530 
	C495.596863,1542.026611 512.458618,1559.384277 530.906006,1574.784302 
	C548.056335,1589.101685 566.822144,1601.612305 585.565674,1613.864136 
	C618.560913,1635.432007 654.117188,1652.017334 691.345154,1664.893555 
	C722.759094,1675.759033 754.885071,1684.029541 787.919250,1688.063599 
	C808.782898,1690.611450 829.753601,1692.530273 850.732910,1693.787231 
	C862.801025,1694.510132 874.995361,1693.606812 887.108521,1692.970947 
	C901.508057,1692.214844 916.023804,1691.887207 930.233032,1689.705444 
	C951.975464,1686.366821 973.685852,1682.381958 995.072937,1677.264038 
	C1030.746460,1668.727173 1064.850708,1655.587280 1098.345459,1638.856445 
z"/>
<path fill="#000000" opacity="1.000000" stroke="none" 
	d="
M836.531372,1.000010 
	C836.180054,1.666340 835.403931,2.847699 834.533569,2.921740 
	C821.459656,4.033971 808.319397,4.552493 795.303955,6.118288 
	C780.176880,7.938113 765.181946,10.826754 750.084717,12.929446 
	C721.433960,16.919846 693.256104,23.226231 665.501648,31.150131 
	C640.395020,38.318092 615.525085,46.390457 590.803833,54.807178 
	C573.844727,60.581154 557.208435,67.360138 540.638550,74.200279 
	C529.815063,78.668289 519.369751,84.052025 508.753448,89.022301 
	C465.232788,109.397545 424.143707,134.020782 384.646759,161.244461 
	C367.037750,173.381668 350.185699,186.681564 333.544067,200.138840 
	C318.269440,212.490662 303.385498,225.381256 288.975250,238.731583 
	C272.771545,253.743423 256.740509,269.018463 241.620209,285.105621 
	C216.465881,311.868378 192.866776,340.072296 171.714493,370.092407 
	C154.944733,393.892761 139.289825,418.530029 124.147636,443.409027 
	C112.793571,462.064026 102.404739,481.379425 92.726715,500.964386 
	C78.454933,529.845459 65.864914,559.482971 54.865810,589.822449 
	C42.321869,624.423096 31.843685,659.604187 23.386803,695.379089 
	C19.639189,711.232544 16.919773,727.338684 14.046757,743.386169 
	C11.476946,757.740112 9.023190,772.129517 7.108617,786.581421 
	C5.605153,797.930115 5.082466,809.406006 3.965852,820.809875 
	C3.415888,826.426697 2.507720,832.008423 1.380820,837.302979 
	C1.000000,558.406250 1.000000,279.812469 1.000000,1.000000 
	C279.354187,1.000000 557.708435,1.000000 836.531372,1.000010 
z"/>
<path fill="#000000" opacity="1.000000" stroke="none" 
	d="
M1793.000000,836.531372 
	C1792.333618,836.180115 1791.152344,835.403992 1791.078247,834.533630 
	C1789.966187,821.459595 1789.447754,808.319275 1787.881836,795.303772 
	C1786.062012,780.176697 1783.173340,765.181702 1781.070557,750.084473 
	C1777.079956,721.433655 1770.773926,693.255676 1762.849976,665.501160 
	C1755.682129,640.394836 1747.609863,615.525146 1739.193115,590.804138 
	C1733.419189,573.844971 1726.640137,557.208679 1719.799927,540.638794 
	C1715.331909,529.815369 1709.948120,519.369995 1704.977905,508.753693 
	C1684.602661,465.232941 1659.979370,424.143799 1632.755493,384.646912 
	C1620.618286,367.037933 1607.318481,350.185852 1593.861328,333.544250 
	C1581.509399,318.269592 1568.618774,303.385712 1555.268433,288.975403 
	C1540.256592,272.771759 1524.981567,256.740601 1508.894409,241.620316 
	C1482.131714,216.466003 1453.927856,192.866791 1423.907715,171.714600 
	C1400.107300,154.944809 1375.469971,139.289825 1350.590942,124.147598 
	C1331.935791,112.793503 1312.620605,102.404533 1293.035400,92.726578 
	C1264.154297,78.454887 1234.516846,65.864868 1204.177246,54.865738 
	C1169.576660,42.321827 1134.395630,31.843723 1098.620728,23.386780 
	C1082.767334,19.639133 1066.661011,16.919777 1050.613525,14.046782 
	C1036.259521,11.476979 1021.870239,9.023197 1007.418335,7.108620 
	C996.069641,5.605164 984.593689,5.082479 973.189819,3.965871 
	C967.573120,3.415910 961.991455,2.507723 956.697021,1.380822 
	C1235.593750,1.000000 1514.187500,1.000000 1793.000000,1.000000 
	C1793.000000,279.354187 1793.000000,557.708435 1793.000000,836.531372 
z"/>
<path fill="#000000" opacity="1.000000" stroke="none" 
	d="
M1.000007,957.468628 
	C1.666335,957.819946 2.847687,958.596069 2.921725,959.466431 
	C4.033953,972.540405 4.500514,985.689209 6.125029,998.694763 
	C8.254489,1015.742737 10.708817,1032.790771 14.034712,1049.639282 
	C19.243948,1076.028198 24.379045,1102.493774 31.260136,1128.472900 
	C37.940422,1153.693726 46.390621,1178.475220 54.807442,1203.196533 
	C60.581459,1220.155640 67.360504,1236.792114 74.200653,1253.362061 
	C78.668610,1264.185547 84.052071,1274.630981 89.022324,1285.247192 
	C109.397781,1328.768066 134.021378,1369.857178 161.245132,1409.354248 
	C173.382294,1426.963257 186.682419,1443.815186 200.139694,1460.456787 
	C212.491577,1475.731445 225.382111,1490.615479 238.732407,1505.025757 
	C253.744370,1521.229492 269.019379,1537.260620 285.106628,1552.380859 
	C311.869507,1577.535156 340.073547,1601.134155 370.093689,1622.286377 
	C393.893890,1639.056274 418.531464,1654.710571 443.410553,1669.852539 
	C462.065735,1681.206665 481.380524,1691.597046 500.966064,1701.274048 
	C529.847900,1715.544189 559.484619,1728.136108 589.824402,1739.134888 
	C624.425049,1751.678223 659.605957,1762.156006 695.380371,1770.614014 
	C711.233765,1774.362183 727.340454,1777.080200 743.388000,1779.953247 
	C757.742004,1782.523071 772.131348,1784.977051 786.583313,1786.891479 
	C797.932068,1788.394897 809.408020,1788.917480 820.811951,1790.034058 
	C826.428101,1790.583740 832.009094,1791.492188 837.302979,1792.619141 
	C558.406250,1793.000000 279.812469,1793.000000 1.000000,1793.000000 
	C1.000000,1514.645752 1.000000,1236.291504 1.000007,957.468628 
z"/>
<path fill="#000000" opacity="1.000000" stroke="none" 
	d="
M957.468628,1793.000000 
	C957.819885,1792.333618 958.596008,1791.152100 959.466370,1791.078247 
	C972.540405,1789.965942 985.680786,1789.447876 998.696289,1787.881958 
	C1013.823303,1786.062134 1028.818359,1783.173096 1043.915405,1781.070557 
	C1072.566406,1777.080322 1100.744507,1770.773560 1128.499023,1762.849731 
	C1153.605469,1755.681885 1178.474976,1747.609741 1203.196045,1739.192871 
	C1220.155151,1733.418823 1236.791504,1726.640137 1253.361328,1719.799805 
	C1264.184937,1715.331665 1274.630249,1709.947998 1285.246582,1704.977661 
	C1328.767334,1684.602417 1369.856689,1659.979248 1409.353760,1632.755493 
	C1426.962891,1620.618286 1443.814697,1607.317871 1460.456421,1593.860474 
	C1475.730957,1581.508667 1490.614990,1568.618164 1505.025269,1555.267944 
	C1521.229126,1540.256104 1537.260132,1524.981079 1552.380493,1508.893921 
	C1577.534668,1482.130981 1601.134033,1453.927246 1622.286255,1423.906982 
	C1639.056030,1400.106567 1654.710205,1375.468628 1669.852417,1350.589600 
	C1681.206665,1331.934448 1691.597168,1312.619751 1701.274292,1293.034302 
	C1715.544556,1264.152588 1728.135742,1234.515625 1739.134521,1204.175903 
	C1751.677856,1169.575195 1762.156006,1134.394409 1770.613770,1098.619995 
	C1774.361816,1082.766602 1777.080322,1066.660156 1779.953247,1050.612549 
	C1782.522827,1036.258545 1784.976929,1021.869202 1786.891602,1007.417297 
	C1788.395142,996.068542 1788.917725,984.592651 1790.034180,973.188721 
	C1790.584106,967.572388 1791.492188,961.991089 1792.619141,956.697021 
	C1793.000000,1235.593750 1793.000000,1514.187500 1793.000000,1793.000000 
	C1514.645752,1793.000000 1236.291504,1793.000000 957.468628,1793.000000 
z"/>
<path fill="#C4E0F7" opacity="1.000000" stroke="none" 
	d="
M1098.005127,1639.007690 
	C1064.850708,1655.587280 1030.746460,1668.727173 995.072937,1677.264038 
	C973.685852,1682.381958 951.975464,1686.366821 930.233032,1689.705444 
	C916.023804,1691.887207 901.508057,1692.214844 887.108521,1692.970947 
	C874.995361,1693.606812 862.801025,1694.510132 850.732910,1693.787231 
	C829.753601,1692.530273 808.782898,1690.611450 787.919250,1688.063599 
	C754.885071,1684.029541 722.759094,1675.759033 691.345154,1664.893555 
	C654.117188,1652.017334 618.560913,1635.432007 585.565674,1613.864136 
	C566.822144,1601.612305 548.056335,1589.101685 530.906006,1574.784302 
	C512.458618,1559.384277 495.596863,1542.026611 478.573181,1524.993530 
	C456.039185,1502.447021 437.527222,1476.645752 420.379913,1449.894653 
	C399.853607,1417.871948 383.230835,1383.893311 370.100555,1348.164062 
	C359.535583,1319.415283 351.746368,1289.935059 346.293335,1259.860474 
	C343.816498,1246.200317 342.237335,1232.332642 341.076843,1218.489868 
	C339.622406,1201.141357 338.107941,1183.711914 338.290894,1166.334961 
	C338.487732,1147.638672 340.596619,1128.960938 341.912689,1110.278198 
	C344.766479,1069.765503 354.817169,1030.827515 368.015350,992.624878 
	C378.581757,962.040161 392.449280,932.946350 408.458740,904.839539 
	C424.960358,875.868652 443.857391,848.482910 466.183258,823.826294 
	C483.563385,804.631775 502.455658,786.723877 521.513550,769.152710 
	C543.673096,748.722046 568.407532,731.529541 594.346008,716.213806 
	C622.752014,699.441101 652.327454,685.057556 683.363098,673.674133 
	C705.702271,665.480347 728.429810,658.813293 751.663513,653.751770 
	C752.970886,653.466919 754.712219,651.561157 754.884216,650.232849 
	C756.754578,635.788391 758.304504,621.302856 760.035889,606.839783 
	C761.904480,591.230652 763.949524,575.642273 765.774353,560.028198 
	C767.292786,547.035278 768.541199,534.010986 770.023987,521.013733 
	C771.487122,508.188141 773.127808,495.382935 774.627991,482.561432 
	C775.801636,472.530304 776.853271,462.484955 778.006897,452.451447 
	C779.538086,439.133453 781.130920,425.822540 782.669006,412.505310 
	C784.131653,399.841461 785.544067,387.171753 787.003662,374.507538 
	C788.538574,361.189880 790.114197,347.876923 791.652100,334.559570 
	C793.114563,321.896240 794.530029,309.227478 796.005310,296.565613 
	C797.518433,283.578857 799.078308,270.597534 800.619263,257.614014 
	C801.067993,253.832581 801.443542,250.040176 801.999390,246.274460 
	C802.419556,243.428329 801.231689,242.129471 798.548828,241.290573 
	C772.264465,233.071777 755.942261,215.289200 750.520142,188.497711 
	C745.295471,162.681839 756.515320,134.099823 781.422485,118.725426 
	C796.671692,109.312531 812.971375,107.518875 830.304688,109.775970 
	C846.063232,111.828003 861.908264,113.206947 877.697632,115.033783 
	C893.478638,116.859627 909.231934,118.923515 925.008606,120.788010 
	C937.505493,122.264885 950.023621,123.561119 962.524536,125.004929 
	C976.004639,126.561829 989.471008,128.237442 1002.951965,129.786453 
	C1015.618530,131.241898 1028.302979,132.541580 1040.967407,134.015289 
	C1056.911987,135.870728 1072.837891,137.888290 1088.783691,139.732483 
	C1101.778076,141.235336 1114.790039,142.587570 1127.794312,144.003967 
	C1146.337769,146.023666 1164.973145,147.843155 1179.868774,160.965134 
	C1194.032593,173.442520 1202.627441,188.819672 1204.041138,207.921463 
	C1205.239746,224.118881 1201.653198,239.069000 1192.111084,252.252945 
	C1181.109741,267.453369 1166.355347,276.975769 1147.655762,279.981384 
	C1144.072266,280.557373 1140.461548,280.963715 1136.376831,281.513916 
	C1135.267212,290.492950 1134.100342,299.637604 1133.014648,308.791840 
	C1131.396851,322.431946 1129.807983,336.075684 1128.258911,349.723724 
	C1126.802124,362.556366 1125.459473,375.402008 1123.980469,388.231995 
	C1122.464355,401.383636 1120.800049,414.518188 1119.281250,427.669495 
	C1117.799561,440.498749 1116.462402,453.344696 1114.983521,466.174255 
	C1113.467285,479.326355 1111.817139,492.462982 1110.298096,505.614746 
	C1108.816162,518.443970 1107.464111,531.288147 1105.985352,544.117737 
	C1104.469360,557.270325 1102.841064,570.409912 1101.312744,583.561035 
	C1099.841187,596.224426 1098.454224,608.897583 1096.994385,621.562317 
	C1095.459106,634.879822 1093.885986,648.193054 1092.320435,661.507080 
	C1091.237915,670.713318 1089.990112,679.905151 1089.211792,689.136780 
	C1089.096069,690.510132 1090.830688,692.761597 1092.261597,693.437744 
	C1129.421875,710.995422 1163.628296,733.136169 1195.587036,758.930176 
	C1214.924561,774.537598 1233.057007,791.430176 1249.897095,809.614746 
	C1278.551758,840.557251 1303.342651,874.386047 1323.784424,911.370605 
	C1340.809448,942.173462 1355.046875,974.173462 1365.700684,1007.702148 
	C1374.547974,1035.545898 1380.710205,1064.011963 1385.168945,1092.918945 
	C1390.365356,1126.608765 1390.882446,1160.479370 1389.768921,1194.349854 
	C1388.777588,1224.499634 1384.706787,1254.395630 1377.891968,1283.863892 
	C1368.835449,1323.026123 1355.702148,1360.701660 1338.162720,1396.911133 
	C1320.908691,1432.531250 1300.283081,1465.982056 1274.984619,1496.392822 
	C1261.612183,1512.467651 1247.841797,1528.326904 1233.044434,1543.072388 
	C1212.334961,1563.708984 1189.822266,1582.350464 1165.665771,1598.993652 
	C1144.118042,1613.839722 1121.853394,1627.371460 1098.005127,1639.007690 
M1059.104004,1021.633972 
	C1039.629395,1024.366211 1020.272278,1027.980835 1000.486633,1028.116089 
	C979.067139,1028.262573 957.784302,1027.513306 936.652161,1023.424011 
	C896.984192,1015.747986 860.768188,999.258301 825.199829,980.887207 
	C788.707703,962.039001 752.931580,941.733643 714.011536,927.882751 
	C680.360962,915.907227 645.868042,908.005859 610.242859,906.284180 
	C593.587646,905.479309 576.795166,907.144104 560.081665,908.013000 
	C540.461121,909.032959 521.860718,914.583801 503.721313,921.744141 
	C488.360626,927.807617 473.561462,934.964172 460.112823,945.895630 
	C459.207275,947.042175 458.066711,948.072388 457.432281,949.353210 
	C450.564636,963.218323 443.298370,976.911621 437.052643,991.054504 
	C414.543427,1042.024292 402.578857,1095.638916 399.231689,1151.086182 
	C398.113068,1169.616455 399.004425,1188.348755 400.179993,1206.912476 
	C401.193939,1222.923828 403.423187,1238.906494 405.977325,1254.762817 
	C413.252472,1299.928589 427.890961,1342.768921 448.446716,1383.557007 
	C463.621613,1413.667969 481.927765,1441.776001 503.163818,1468.047729 
	C527.376831,1498.002319 554.802246,1524.584106 585.585205,1547.589355 
	C632.178955,1582.410400 683.468018,1607.859253 739.648926,1623.404297 
	C771.933716,1632.337524 804.840454,1637.586304 838.140198,1639.737061 
	C856.001648,1640.890625 874.093201,1640.169067 891.975464,1638.856079 
	C911.290344,1637.437866 930.594177,1635.016113 949.703613,1631.835205 
	C986.299316,1625.743530 1021.375916,1614.271362 1055.042847,1598.806274 
	C1110.700195,1573.239746 1159.979736,1538.679077 1201.991943,1493.839722 
	C1218.201416,1476.539551 1233.097778,1458.252075 1246.597412,1438.847656 
	C1269.044434,1406.582153 1286.919678,1371.870972 1300.416382,1334.943848 
	C1314.515991,1296.366455 1323.658569,1256.610962 1326.760254,1215.665771 
	C1328.200806,1196.648560 1328.545288,1177.454712 1327.859375,1158.395996 
	C1327.163208,1139.054321 1325.574219,1119.627686 1322.625854,1100.508301 
	C1316.416382,1060.241699 1304.582764,1021.505371 1287.695923,984.371216 
	C1282.512085,972.972107 1276.220459,968.915100 1263.931274,971.235596 
	C1239.811523,975.790039 1215.580811,980.145020 1191.866699,986.374268 
	C1147.870483,997.931580 1104.745728,1012.768555 1059.104004,1021.633972 
M1046.808228,966.482849 
	C1075.348145,953.775940 1090.573975,932.448120 1090.059448,900.561646 
	C1089.765869,882.369141 1082.847290,867.033569 1069.950317,854.795654 
	C1040.609131,826.953918 997.111389,830.655334 972.079346,859.161194 
	C952.160706,881.844177 950.328918,918.629456 968.395935,942.847290 
	C984.942139,965.026489 1014.869263,977.746460 1046.808228,966.482849 
M891.168274,651.550354 
	C866.150391,659.809509 850.538452,687.414673 856.214966,711.994751 
	C862.686157,740.016418 889.505432,758.919128 916.896484,753.875610 
	C946.051636,748.507263 966.767456,722.383362 960.110413,690.433899 
	C953.571716,659.052307 922.738281,641.857849 891.168274,651.550354 
M751.593872,772.972656 
	C729.080811,787.173950 724.217224,812.743896 740.195740,832.897766 
	C751.569885,847.244324 772.085571,851.323181 788.887939,842.578613 
	C804.795349,834.299805 813.131409,814.741455 808.343262,797.514771 
	C801.253113,772.006409 775.087158,762.452881 751.593872,772.972656 
M1047.017090,580.397644 
	C1047.585083,585.881470 1051.330078,589.868958 1055.977051,589.937683 
	C1060.639893,590.006592 1064.279053,586.465637 1064.956543,580.963196 
	C1065.845215,573.744385 1066.569214,566.505493 1067.411255,559.280701 
	C1068.922607,546.314453 1070.489258,533.354736 1071.993530,520.387695 
	C1073.155396,510.371887 1074.221558,500.344910 1075.395386,490.330505 
	C1076.895508,477.529877 1078.512817,464.742859 1079.982422,451.938751 
	C1081.132568,441.918060 1082.065308,431.872375 1083.218750,421.852081 
	C1084.749268,408.558441 1086.400146,395.278687 1088.000488,381.993103 
	C1089.225586,371.823395 1090.495728,361.658936 1091.663452,351.482666 
	C1092.511597,344.090912 1093.463501,336.698090 1093.912964,329.278137 
	C1094.202637,324.494812 1091.027100,320.949127 1086.280640,320.295349 
	C1082.064575,319.714600 1078.492065,321.361053 1077.299194,325.614502 
	C1076.107300,329.864685 1075.551880,334.323090 1075.035889,338.727509 
	C1073.535522,351.535492 1072.249146,364.368439 1070.775513,377.179749 
	C1069.246460,390.473328 1067.558105,403.748566 1066.012329,417.040314 
	C1064.828369,427.220795 1063.809937,437.420532 1062.624146,447.600830 
	C1061.133057,460.402039 1059.491211,473.185791 1058.019287,485.989136 
	C1056.867188,496.009552 1055.941040,506.055878 1054.795288,516.077087 
	C1053.256348,529.536377 1051.621826,542.984863 1049.990967,556.433472 
	C1049.056396,564.140686 1048.047852,571.838867 1047.017090,580.397644 
M619.177795,842.887146 
	C619.513733,843.999634 619.785278,845.136414 620.195557,846.220764 
	C624.063171,856.444580 634.621338,861.394348 644.757996,857.197144 
	C656.428772,852.364868 658.045898,843.182251 655.059021,832.479614 
	C652.696655,824.014648 643.071106,819.459778 634.166016,821.179810 
	C624.426025,823.061035 618.822266,830.813354 619.177795,842.887146 
M1186.986938,906.432556 
	C1183.054077,902.881531 1178.338623,901.684937 1173.187622,901.985474 
	C1163.163940,902.570251 1155.893311,910.546814 1155.912354,920.850769 
	C1155.930176,930.444092 1164.151123,939.447571 1173.393677,939.995850 
	C1180.406982,940.411865 1188.661011,935.252991 1191.793457,928.495850 
	C1194.952148,921.681885 1193.256348,913.093079 1186.986938,906.432556 
M1023.563904,752.951538 
	C1012.453125,753.733826 1004.541016,762.202087 1004.998596,772.821960 
	C1005.384460,781.777100 1014.664978,790.161804 1024.166748,790.139954 
	C1034.603271,790.115967 1042.734619,782.362183 1042.996094,772.184937 
	C1043.270874,761.491882 1035.717407,753.664490 1023.563904,752.951538 
M843.843262,916.360474 
	C843.914795,923.989197 847.794983,929.455688 854.382812,932.508606 
	C860.725830,935.447998 867.462646,935.166565 873.317627,930.916626 
	C880.567810,925.653748 883.205078,915.374268 879.695923,907.725037 
	C875.966858,899.596375 867.267578,895.289185 858.198730,897.102722 
	C850.236084,898.695068 842.692017,907.101440 843.843262,916.360474 
z"/>
<path fill="#50C7C3" opacity="1.000000" stroke="none" 
	d="
M1059.977661,1021.457214 
	C1104.745728,1012.768555 1147.870483,997.931580 1191.866699,986.374268 
	C1215.580811,980.145020 1239.811523,975.790039 1263.931274,971.235596 
	C1276.220459,968.915100 1282.512085,972.972107 1287.695923,984.371216 
	C1304.582764,1021.505371 1316.416382,1060.241699 1322.625854,1100.508301 
	C1325.574219,1119.627686 1327.163208,1139.054321 1327.859375,1158.395996 
	C1328.545288,1177.454712 1328.200806,1196.648560 1326.760254,1215.665771 
	C1323.658569,1256.610962 1314.515991,1296.366455 1300.416382,1334.943848 
	C1286.919678,1371.870972 1269.044434,1406.582153 1246.597412,1438.847656 
	C1233.097778,1458.252075 1218.201416,1476.539551 1201.991943,1493.839722 
	C1159.979736,1538.679077 1110.700195,1573.239746 1055.042847,1598.806274 
	C1021.375916,1614.271362 986.299316,1625.743530 949.703613,1631.835205 
	C930.594177,1635.016113 911.290344,1637.437866 891.975464,1638.856079 
	C874.093201,1640.169067 856.001648,1640.890625 838.140198,1639.737061 
	C804.840454,1637.586304 771.933716,1632.337524 739.648926,1623.404297 
	C683.468018,1607.859253 632.178955,1582.410400 585.585205,1547.589355 
	C554.802246,1524.584106 527.376831,1498.002319 503.163818,1468.047729 
	C481.927765,1441.776001 463.621613,1413.667969 448.446716,1383.557007 
	C427.890961,1342.768921 413.252472,1299.928589 405.977325,1254.762817 
	C403.423187,1238.906494 401.193939,1222.923828 400.179993,1206.912476 
	C399.004425,1188.348755 398.113068,1169.616455 399.231689,1151.086182 
	C402.578857,1095.638916 414.543427,1042.024292 437.052643,991.054504 
	C443.298370,976.911621 450.564636,963.218323 457.432281,949.353210 
	C458.066711,948.072388 459.207275,947.042175 460.551697,946.207031 
	C466.657013,972.453247 479.505096,994.430908 498.429199,1012.774536 
	C512.324585,1026.243652 528.284424,1036.989380 545.331116,1046.178223 
	C565.157227,1056.864990 586.410706,1063.930176 607.650391,1070.968750 
	C633.320679,1079.475464 659.642578,1085.268311 686.427795,1089.160400 
	C712.060364,1092.885254 737.764893,1095.341919 763.665405,1094.924805 
	C778.587097,1094.684570 793.537170,1094.169189 808.401123,1092.910645 
	C825.518677,1091.461304 842.612061,1089.446899 859.614624,1086.979736 
	C889.987793,1082.572388 919.722778,1075.251709 949.020691,1066.127441 
	C983.001160,1055.544800 1016.149780,1042.782593 1048.559204,1028.104248 
	C1052.550171,1026.296753 1056.180298,1023.692322 1059.977661,1021.457214 
M1278.987305,1272.416016 
	C1280.796021,1263.313599 1282.919312,1254.259766 1284.335205,1245.096558 
	C1286.201660,1233.018799 1288.082886,1220.893188 1288.896362,1208.717285 
	C1289.654541,1197.366577 1289.270020,1185.915771 1288.930054,1174.522583 
	C1288.629272,1164.444092 1288.441040,1154.267212 1286.880859,1144.341797 
	C1284.029053,1126.199097 1280.475464,1108.151123 1276.647095,1090.184692 
	C1275.062378,1082.746948 1272.225220,1075.543335 1269.567871,1068.377808 
	C1267.591431,1063.048950 1262.527222,1060.786011 1257.985718,1062.589966 
	C1253.139648,1064.515015 1251.132690,1069.048828 1252.759888,1074.424316 
	C1253.048828,1075.378784 1253.370728,1076.324219 1253.706543,1077.263428 
	C1265.716431,1110.845703 1271.244141,1145.610352 1271.863159,1181.135864 
	C1272.078979,1193.518555 1271.028442,1205.961426 1269.908447,1218.318115 
	C1268.880127,1229.666504 1267.513672,1241.038574 1265.359253,1252.219727 
	C1260.143188,1279.290283 1251.160156,1305.155273 1239.122559,1329.970703 
	C1236.144653,1336.109863 1238.084473,1341.582764 1243.725830,1344.275146 
	C1248.072388,1346.349609 1252.096802,1344.044434 1255.135132,1337.737183 
	C1265.123291,1317.001465 1273.095093,1295.525146 1278.987305,1272.416016 
M1208.889038,1395.976440 
	C1206.145020,1398.189941 1202.645752,1399.899780 1200.779419,1402.698486 
	C1188.436523,1421.207031 1174.290894,1438.072144 1157.229370,1452.416748 
	C1152.652710,1456.264648 1147.866577,1459.890015 1143.539185,1463.999390 
	C1139.879150,1467.474976 1139.921265,1472.231934 1142.987549,1475.612305 
	C1146.505493,1479.490112 1151.026367,1480.234131 1154.982056,1477.190918 
	C1179.562500,1458.279053 1200.961426,1436.399658 1217.180542,1409.777100 
	C1221.409180,1402.836060 1217.914673,1396.540039 1208.889038,1395.976440 
z"/>
<path fill="#46A5A0" opacity="1.000000" stroke="none" 
	d="
M1059.540771,1021.545593 
	C1056.180298,1023.692322 1052.550171,1026.296753 1048.559204,1028.104248 
	C1016.149780,1042.782593 983.001160,1055.544800 949.020691,1066.127441 
	C919.722778,1075.251709 889.987793,1082.572388 859.614624,1086.979736 
	C842.612061,1089.446899 825.518677,1091.461304 808.401123,1092.910645 
	C793.537170,1094.169189 778.587097,1094.684570 763.665405,1094.924805 
	C737.764893,1095.341919 712.060364,1092.885254 686.427795,1089.160400 
	C659.642578,1085.268311 633.320679,1079.475464 607.650391,1070.968750 
	C586.410706,1063.930176 565.157227,1056.864990 545.331116,1046.178223 
	C528.284424,1036.989380 512.324585,1026.243652 498.429199,1012.774536 
	C479.505096,994.430908 466.657013,972.453247 460.888794,946.110840 
	C473.561462,934.964172 488.360626,927.807617 503.721313,921.744141 
	C521.860718,914.583801 540.461121,909.032959 560.081665,908.013000 
	C576.795166,907.144104 593.587646,905.479309 610.242859,906.284180 
	C645.868042,908.005859 680.360962,915.907227 714.011536,927.882751 
	C752.931580,941.733643 788.707703,962.039001 825.199829,980.887207 
	C860.768188,999.258301 896.984192,1015.747986 936.652161,1023.424011 
	C957.784302,1027.513306 979.067139,1028.262573 1000.486633,1028.116089 
	C1020.272278,1027.980835 1039.629395,1024.366211 1059.540771,1021.545593 
z"/>
<path fill="#50C7C3" opacity="1.000000" stroke="none" 
	d="
M1046.448730,966.637878 
	C1014.869263,977.746460 984.942139,965.026489 968.395935,942.847290 
	C950.328918,918.629456 952.160706,881.844177 972.079346,859.161194 
	C997.111389,830.655334 1040.609131,826.953918 1069.950317,854.795654 
	C1082.847290,867.033569 1089.765869,882.369141 1090.059448,900.561646 
	C1090.573975,932.448120 1075.348145,953.775940 1046.448730,966.637878 
z"/>
<path fill="#46A5A0" opacity="1.000000" stroke="none" 
	d="
M891.531982,651.392334 
	C922.738281,641.857849 953.571716,659.052307 960.110413,690.433899 
	C966.767456,722.383362 946.051636,748.507263 916.896484,753.875610 
	C889.505432,758.919128 862.686157,740.016418 856.214966,711.994751 
	C850.538452,687.414673 866.150391,659.809509 891.531982,651.392334 
z"/>
<path fill="#51C7C3" opacity="1.000000" stroke="none" 
	d="
M751.905823,772.767273 
	C775.087158,762.452881 801.253113,772.006409 808.343262,797.514771 
	C813.131409,814.741455 804.795349,834.299805 788.887939,842.578613 
	C772.085571,851.323181 751.569885,847.244324 740.195740,832.897766 
	C724.217224,812.743896 729.080811,787.173950 751.905823,772.767273 
z"/>
<path fill="#DEF3FC" opacity="1.000000" stroke="none" 
	d="
M1047.044922,579.969360 
	C1048.047852,571.838867 1049.056396,564.140686 1049.990967,556.433472 
	C1051.621826,542.984863 1053.256348,529.536377 1054.795288,516.077087 
	C1055.941040,506.055878 1056.867188,496.009552 1058.019287,485.989136 
	C1059.491211,473.185791 1061.133057,460.402039 1062.624146,447.600830 
	C1063.809937,437.420532 1064.828369,427.220795 1066.012329,417.040314 
	C1067.558105,403.748566 1069.246460,390.473328 1070.775513,377.179749 
	C1072.249146,364.368439 1073.535522,351.535492 1075.035889,338.727509 
	C1075.551880,334.323090 1076.107300,329.864685 1077.299194,325.614502 
	C1078.492065,321.361053 1082.064575,319.714600 1086.280640,320.295349 
	C1091.027100,320.949127 1094.202637,324.494812 1093.912964,329.278137 
	C1093.463501,336.698090 1092.511597,344.090912 1091.663452,351.482666 
	C1090.495728,361.658936 1089.225586,371.823395 1088.000488,381.993103 
	C1086.400146,395.278687 1084.749268,408.558441 1083.218750,421.852081 
	C1082.065308,431.872375 1081.132568,441.918060 1079.982422,451.938751 
	C1078.512817,464.742859 1076.895508,477.529877 1075.395386,490.330505 
	C1074.221558,500.344910 1073.155396,510.371887 1071.993530,520.387695 
	C1070.489258,533.354736 1068.922607,546.314453 1067.411255,559.280701 
	C1066.569214,566.505493 1065.845215,573.744385 1064.956543,580.963196 
	C1064.279053,586.465637 1060.639893,590.006592 1055.977051,589.937683 
	C1051.330078,589.868958 1047.585083,585.881470 1047.044922,579.969360 
z"/>
<path fill="#48A6A1" opacity="1.000000" stroke="none" 
	d="
M619.129761,842.467407 
	C618.822266,830.813354 624.426025,823.061035 634.166016,821.179810 
	C643.071106,819.459778 652.696655,824.014648 655.059021,832.479614 
	C658.045898,843.182251 656.428772,852.364868 644.757996,857.197144 
	C634.621338,861.394348 624.063171,856.444580 620.195557,846.220764 
	C619.785278,845.136414 619.513733,843.999634 619.129761,842.467407 
z"/>
<path fill="#47A6A1" opacity="1.000000" stroke="none" 
	d="
M1187.260986,906.680664 
	C1193.256348,913.093079 1194.952148,921.681885 1191.793457,928.495850 
	C1188.661011,935.252991 1180.406982,940.411865 1173.393677,939.995850 
	C1164.151123,939.447571 1155.930176,930.444092 1155.912354,920.850769 
	C1155.893311,910.546814 1163.163940,902.570251 1173.187622,901.985474 
	C1178.338623,901.684937 1183.054077,902.881531 1187.260986,906.680664 
z"/>
<path fill="#51C7C4" opacity="1.000000" stroke="none" 
	d="
M1023.999634,752.951172 
	C1035.717407,753.664490 1043.270874,761.491882 1042.996094,772.184937 
	C1042.734619,782.362183 1034.603271,790.115967 1024.166748,790.139954 
	C1014.664978,790.161804 1005.384460,781.777100 1004.998596,772.821960 
	C1004.541016,762.202087 1012.453125,753.733826 1023.999634,752.951172 
z"/>
<path fill="#51C7C3" opacity="1.000000" stroke="none" 
	d="
M843.829834,915.914307 
	C842.692017,907.101440 850.236084,898.695068 858.198730,897.102722 
	C867.267578,895.289185 875.966858,899.596375 879.695923,907.725037 
	C883.205078,915.374268 880.567810,925.653748 873.317627,930.916626 
	C867.462646,935.166565 860.725830,935.447998 854.382812,932.508606 
	C847.794983,929.455688 843.914795,923.989197 843.829834,915.914307 
z"/>
<path fill="#DCF3FB" opacity="1.000000" stroke="none" 
	d="
M1278.906982,1272.821045 
	C1273.095093,1295.525146 1265.123291,1317.001465 1255.135132,1337.737183 
	C1252.096802,1344.044434 1248.072388,1346.349609 1243.725830,1344.275146 
	C1238.084473,1341.582764 1236.144653,1336.109863 1239.122559,1329.970703 
	C1251.160156,1305.155273 1260.143188,1279.290283 1265.359253,1252.219727 
	C1267.513672,1241.038574 1268.880127,1229.666504 1269.908447,1218.318115 
	C1271.028442,1205.961426 1272.078979,1193.518555 1271.863159,1181.135864 
	C1271.244141,1145.610352 1265.716431,1110.845703 1253.706543,1077.263428 
	C1253.370728,1076.324219 1253.048828,1075.378784 1252.759888,1074.424316 
	C1251.132690,1069.048828 1253.139648,1064.515015 1257.985718,1062.589966 
	C1262.527222,1060.786011 1267.591431,1063.048950 1269.567871,1068.377808 
	C1272.225220,1075.543335 1275.062378,1082.746948 1276.647095,1090.184692 
	C1280.475464,1108.151123 1284.029053,1126.199097 1286.880859,1144.341797 
	C1288.441040,1154.267212 1288.629272,1164.444092 1288.930054,1174.522583 
	C1289.270020,1185.915771 1289.654541,1197.366577 1288.896362,1208.717285 
	C1288.082886,1220.893188 1286.201660,1233.018799 1284.335205,1245.096558 
	C1282.919312,1254.259766 1280.796021,1263.313599 1278.906982,1272.821045 
z"/>
<path fill="#DCF2FB" opacity="1.000000" stroke="none" 
	d="
M1209.294189,1395.953369 
	C1217.914673,1396.540039 1221.409180,1402.836060 1217.180542,1409.777100 
	C1200.961426,1436.399658 1179.562500,1458.279053 1154.982056,1477.190918 
	C1151.026367,1480.234131 1146.505493,1479.490112 1142.987549,1475.612305 
	C1139.921265,1472.231934 1139.879150,1467.474976 1143.539185,1463.999390 
	C1147.866577,1459.890015 1152.652710,1456.264648 1157.229370,1452.416748 
	C1174.290894,1438.072144 1188.436523,1421.207031 1200.779419,1402.698486 
	C1202.645752,1399.899780 1206.145020,1398.189941 1209.294189,1395.953369 
z"/>
</svg>