<svg version="1.1" id="Layer_1" xmlns="http://www.w3.org/2000/svg" xmlns:xlink="http://www.w3.org/1999/xlink" x="0px" y="0px"
	 width="100%" viewBox="0 0 2160 2160" enable-background="new 0 0 2160 2160" xml:space="preserve">
<path fill="#FFFFFF" opacity="1.000000" stroke="none" 
	d="
M1040.000000,2162.000000 
	C693.373230,2162.000000 347.746429,2162.000000 2.059832,2162.000000 
	C2.059832,1442.122925 2.059832,722.245972 2.059832,2.184458 
	C721.793884,2.184458 1441.587891,2.184458 2161.690918,2.184458 
	C2161.690918,721.999878 2161.690918,1441.999878 2161.690918,2162.000000 
	C1788.244995,2162.000000 1414.622437,2162.000000 1040.000000,2162.000000 
M1516.013306,1159.020020 
	C1516.013306,1159.020020 1515.998291,1158.076050 1517.828491,1157.636963 
	C1534.362671,1157.505737 1550.896851,1157.374634 1567.790161,1157.240601 
	C1567.594727,1148.298340 1569.462646,1140.416504 1566.253174,1132.318848 
	C1554.963745,1132.318848 1544.025024,1132.341675 1533.086548,1132.306396 
	C1529.270020,1132.293945 1525.102783,1133.365479 1521.697510,1128.767212 
	C1534.675903,1105.910522 1551.693604,1085.359253 1563.780151,1060.853271 
	C1560.567993,1059.888062 1558.443237,1058.696167 1556.317871,1058.694580 
	C1527.360962,1058.673706 1498.404053,1058.817627 1467.964233,1058.178711 
	C1467.450073,1057.976074 1466.935913,1057.773438 1466.027588,1056.236938 
	C1463.393066,1052.486450 1460.553101,1048.860229 1458.186523,1044.947510 
	C1456.164307,1041.604248 1455.301270,1037.417847 1452.858765,1034.495972 
	C1442.857300,1022.531372 1432.668579,1010.705139 1422.115479,999.226196 
	C1414.230103,990.648804 1405.774536,982.585266 1397.406738,974.463989 
	C1381.612305,959.134949 1363.650513,946.559570 1345.193970,934.774536 
	C1332.354248,926.575867 1318.914917,919.293457 1305.550537,911.952820 
	C1301.539429,909.749634 1299.516602,907.287537 1299.944702,902.615845 
	C1300.882446,892.381165 1301.221069,882.082825 1302.415894,871.882141 
	C1304.722900,852.184509 1307.567993,832.550476 1309.956055,812.861694 
	C1311.032959,803.983521 1311.320068,795.010437 1312.364136,786.127319 
	C1314.796753,765.433411 1317.527588,744.774719 1320.019165,724.087524 
	C1321.009155,715.868042 1321.502930,707.587769 1322.542480,699.375671 
	C1324.909668,680.675171 1327.639771,662.019775 1329.912231,643.308411 
	C1332.099854,625.297058 1333.897705,607.238403 1335.859253,589.268677 
	C1340.478149,588.001160 1343.923340,586.869446 1347.449707,586.118652 
	C1367.926880,581.759216 1380.857544,568.945374 1386.863770,549.455994 
	C1388.754395,543.321899 1388.307861,536.222595 1387.819946,529.647522 
	C1386.493408,511.772064 1377.432495,498.596130 1361.952026,489.724457 
	C1353.124756,484.665619 1343.377563,482.986877 1333.461914,482.019440 
	C1324.225708,481.118317 1314.941772,480.646942 1305.732300,479.541382 
	C1286.027344,477.175873 1266.372925,474.388275 1246.665161,472.048615 
	C1237.787231,470.994629 1228.786865,470.950653 1219.919800,469.832031 
	C1201.543945,467.513763 1183.226807,464.733063 1164.871094,462.249084 
	C1158.308105,461.360931 1151.704102,460.774048 1145.117554,460.060852 
	C1129.323242,458.350616 1113.484009,456.974579 1097.747314,454.840393 
	C1084.379517,453.027466 1072.023682,454.554291 1060.619995,462.242340 
	C1047.701416,470.951782 1038.355591,481.802704 1035.936646,497.918488 
	C1033.483765,514.260376 1036.704590,528.542114 1047.905518,541.117432 
	C1055.624756,549.783813 1065.262329,555.236755 1076.032349,559.329651 
	C1073.949463,577.230164 1071.943970,594.299438 1069.983276,611.373840 
	C1068.624634,623.205322 1067.341064,635.045410 1065.999146,646.878845 
	C1064.806396,657.394897 1063.577759,667.906860 1062.368286,678.421021 
	C1060.930908,690.917358 1059.501953,703.414734 1058.059448,715.910522 
	C1057.301025,722.480713 1056.537109,729.050354 1055.746216,735.616699 
	C1055.193237,740.208618 1054.543091,744.789307 1054.022827,749.384766 
	C1053.502197,753.983887 1053.210449,758.611145 1052.604614,763.197815 
	C1051.173828,774.028687 1048.987549,784.799377 1048.238037,795.672424 
	C1046.574951,819.796875 1043.732788,843.761719 1040.128540,867.653564 
	C1038.405640,879.073792 1038.409912,879.126465 1027.521851,881.766052 
	C998.719360,888.748596 970.905273,898.602356 944.494873,911.976624 
	C919.936890,924.412781 896.481934,938.669800 874.542847,955.537537 
	C850.969604,973.661560 829.605591,993.891907 810.280945,1016.412720 
	C808.239258,1018.792175 805.073486,1020.206909 802.058167,1020.215332 
	C801.323669,1011.084778 802.778625,1001.704651 799.020142,992.217529 
	C789.546204,992.217529 780.145325,992.217529 770.103699,992.217529 
	C770.103699,1008.028992 770.240295,1023.224487 770.064392,1038.416260 
	C769.896362,1052.927368 769.402893,1067.434692 767.772888,1082.307983 
	C762.152771,1091.443115 756.683105,1100.677856 750.773926,1109.621948 
	C749.706909,1111.237061 746.833496,1111.658691 743.895996,1111.707031 
	C735.306824,1101.933716 723.696594,1098.368408 711.523743,1095.980713 
	C704.693787,1094.640991 697.756165,1093.707153 691.067932,1091.862427 
	C688.602356,1091.182373 684.961365,1088.402344 684.971191,1086.597046 
	C684.986084,1083.875732 687.116089,1080.330078 689.439697,1078.615967 
	C696.079529,1073.718018 708.188721,1076.225220 713.493530,1082.755249 
	C714.851135,1084.426392 716.790710,1086.712769 718.545837,1086.788208 
	C727.032776,1087.153564 735.547913,1086.861084 744.205261,1086.800781 
	C741.928894,1070.061035 729.070923,1058.715210 711.506775,1057.677002 
	C702.229431,1057.128906 692.777405,1057.152832 683.586731,1058.335938 
	C677.190002,1059.159424 670.817017,1061.806763 664.940247,1064.676880 
	C653.951294,1070.044067 652.244812,1080.093506 653.327942,1091.035156 
	C654.290527,1100.758911 660.832031,1105.596436 669.377991,1107.895874 
	C680.253113,1110.821655 691.360352,1112.885376 702.233154,1115.818726 
	C705.884338,1116.803711 709.625671,1118.755249 712.421692,1121.270142 
	C715.686584,1124.206787 716.120422,1129.177246 713.181152,1132.146973 
	C709.534241,1135.831665 704.474915,1139.050781 698.845459,1137.538940 
	C690.253906,1135.231689 680.930420,1133.345215 679.195801,1121.512085 
	C668.657776,1121.989990 658.648071,1120.845581 647.913452,1121.807129 
	C650.839478,1132.851929 654.949951,1142.090088 663.220764,1148.083984 
	C670.702759,1153.506104 679.248291,1157.298950 688.996216,1157.830811 
	C703.693726,1158.632568 718.185486,1158.352783 732.187195,1155.119995 
	C730.449524,1162.830688 728.758057,1170.552246 726.962646,1178.249512 
	C724.709229,1187.909668 721.964294,1197.475952 720.183044,1207.219971 
	C718.401245,1216.967163 717.372864,1226.865356 716.335205,1236.731079 
	C715.364746,1245.958618 714.296875,1255.223999 714.182739,1264.483887 
	C713.900452,1287.390747 713.830383,1310.225220 717.746948,1333.039307 
	C721.050598,1352.282471 723.516785,1371.558228 728.998596,1390.444580 
	C738.781067,1424.147827 751.538696,1456.458740 769.406250,1486.712769 
	C785.505554,1513.972900 803.994141,1539.523315 825.787781,1562.445435 
	C848.498596,1586.332397 873.595825,1607.418823 901.613953,1625.127197 
	C929.887390,1642.997192 959.554993,1657.636963 991.101440,1668.625244 
	C1013.721436,1676.504395 1036.870605,1682.310303 1060.569214,1685.521973 
	C1076.306274,1687.654785 1092.188965,1689.084961 1108.052979,1689.804443 
	C1123.682861,1690.513306 1139.372314,1690.011841 1155.033691,1689.857788 
	C1158.983032,1689.818970 1162.966187,1689.308960 1166.863892,1688.620239 
	C1182.497192,1685.857788 1198.025513,1682.376343 1213.737793,1680.216431 
	C1235.362915,1677.243774 1255.685791,1669.825562 1275.558350,1661.721680 
	C1295.512207,1653.584717 1314.801025,1643.530762 1333.615356,1632.954224 
	C1360.919189,1617.605225 1385.643555,1598.483398 1408.141846,1576.675049 
	C1431.341431,1554.186890 1451.908691,1529.571411 1469.334106,1502.180420 
	C1486.189087,1475.685913 1499.838379,1447.773071 1510.698242,1418.432983 
	C1519.705322,1394.098755 1526.061035,1369.004517 1529.553467,1343.308716 
	C1531.691895,1327.574829 1533.523560,1311.677124 1533.719116,1295.831055 
	C1533.981445,1274.591919 1532.527710,1253.331421 1531.918213,1230.703003 
	C1531.225098,1229.146118 1530.531982,1227.589233 1529.886230,1224.330811 
	C1528.507080,1214.922119 1527.127808,1205.513306 1525.822876,1194.884888 
	C1525.186157,1193.929443 1524.549438,1192.973999 1523.930054,1190.418457 
	C1522.569458,1184.969116 1521.208740,1179.519653 1519.779419,1172.586670 
	C1518.500732,1168.378296 1517.222046,1164.169800 1516.013306,1159.020020 
M491.089325,1027.704834 
	C482.614288,1013.900391 470.529816,1006.491821 454.082336,1006.574951 
	C437.756866,1006.657471 421.430542,1006.554199 405.104828,1006.608704 
	C402.538513,1006.617249 399.973541,1007.030273 397.578430,1007.241333 
	C395.320374,1020.123779 395.972809,1148.173462 398.325348,1155.402344 
	C408.048492,1155.402344 417.872162,1155.402344 428.586090,1155.402344 
	C428.911926,1151.581665 429.393677,1148.367554 429.423279,1145.149292 
	C429.530579,1133.489014 429.429413,1121.826782 429.553284,1110.166870 
	C429.574646,1108.158813 430.309082,1106.158447 431.062714,1102.429810 
	C435.269470,1108.222534 438.594666,1112.356812 441.435089,1116.801025 
	C448.234924,1127.440552 454.652008,1138.327148 461.572083,1148.885742 
	C463.459137,1151.765015 466.455841,1155.764893 469.159851,1155.941895 
	C480.996948,1156.716309 492.913574,1156.275269 506.695648,1156.275269 
	C492.032288,1137.003662 478.683777,1119.460205 464.780640,1101.187866 
	C478.850616,1093.782104 491.094940,1086.188965 495.735748,1071.392212 
	C500.313904,1056.795410 499.427002,1042.541016 491.089325,1027.704834 
M570.067688,1157.395752 
	C579.955017,1156.675903 587.797852,1151.031372 596.403442,1145.593018 
	C597.350403,1149.478760 598.092834,1152.525513 598.788086,1155.378418 
	C608.604431,1155.378418 617.808350,1155.378418 627.942627,1155.378418 
	C627.942627,1122.969116 627.942627,1091.252808 627.942627,1058.199707 
	C617.849365,1058.880371 608.385559,1059.518555 598.810974,1060.164185 
	C597.718628,1063.273193 596.703064,1066.163574 595.856140,1068.574097 
	C587.960144,1065.080811 581.063110,1060.581177 573.549500,1058.986328 
	C553.775330,1054.789062 537.416931,1061.943604 525.296692,1077.699829 
	C512.415527,1094.445068 512.735718,1113.508423 521.195312,1131.372681 
	C530.193481,1150.374512 546.324219,1160.067383 570.067688,1157.395752 
M1661.935669,1063.378540 
	C1650.347656,1056.438843 1637.643799,1056.466187 1625.083618,1058.631714 
	C1606.107300,1061.903687 1590.975342,1070.522461 1583.134766,1089.750000 
	C1575.822266,1107.682983 1582.942505,1135.218262 1597.734741,1145.896484 
	C1618.880127,1161.161011 1641.143066,1162.298950 1664.398682,1151.510986 
	C1673.408447,1147.331543 1680.554443,1141.084106 1684.555908,1131.749634 
	C1687.733398,1124.337280 1685.779663,1120.793945 1677.939331,1120.449829 
	C1670.687622,1120.131592 1663.410889,1120.382202 1656.663696,1120.382202 
	C1649.152588,1133.370117 1640.552979,1137.462891 1629.232300,1134.054565 
	C1620.720703,1131.491821 1615.209961,1122.568115 1615.949219,1111.383301 
	C1640.376831,1111.383301 1664.892822,1111.383301 1689.523438,1111.383301 
	C1689.925659,1109.111694 1690.390747,1107.822510 1690.343506,1106.552612 
	C1689.620728,1087.117065 1682.421631,1071.758301 1661.935669,1063.378540 
M1770.290405,1083.101318 
	C1773.385986,1084.012329 1776.481567,1084.923462 1780.284058,1086.042603 
	C1780.284058,1077.008301 1780.284058,1068.515625 1780.284058,1059.913086 
	C1766.491333,1053.843140 1756.552856,1061.465820 1747.682495,1067.725586 
	C1745.302124,1064.853394 1743.531372,1060.709473 1741.441162,1060.541748 
	C1732.295532,1059.807251 1723.057495,1060.225342 1714.186157,1060.225342 
	C1711.805176,1070.289551 1711.887451,1148.986084 1714.187134,1157.473755 
	C1718.914917,1157.473755 1723.860474,1157.529053 1728.804321,1157.458496 
	C1733.976196,1157.384644 1739.146362,1157.189697 1745.065552,1157.027100 
	C1745.065552,1152.258789 1745.061768,1148.642944 1745.066162,1145.026978 
	C1745.080566,1133.035522 1744.699463,1121.026855 1745.213745,1109.056763 
	C1745.881226,1093.521240 1753.787109,1085.124878 1770.290405,1083.101318 
z"/>
<path fill="#C4DFF6" opacity="1.000000" stroke="none" 
	d="
M802.429199,1022.069214 
	C805.073486,1020.206909 808.239258,1018.792175 810.280945,1016.412720 
	C829.605591,993.891907 850.969604,973.661560 874.542847,955.537537 
	C896.481934,938.669800 919.936890,924.412781 944.494873,911.976624 
	C970.905273,898.602356 998.719360,888.748596 1027.521851,881.766052 
	C1038.409912,879.126465 1038.405640,879.073792 1040.128540,867.653564 
	C1043.732788,843.761719 1046.574951,819.796875 1048.238037,795.672424 
	C1048.987549,784.799377 1051.173828,774.028687 1052.604614,763.197815 
	C1053.210449,758.611145 1053.502197,753.983887 1054.022827,749.384766 
	C1054.543091,744.789307 1055.193237,740.208618 1055.746216,735.616699 
	C1056.537109,729.050354 1057.301025,722.480713 1058.059448,715.910522 
	C1059.501953,703.414734 1060.930908,690.917358 1062.368286,678.421021 
	C1063.577759,667.906860 1064.806396,657.394897 1065.999146,646.878845 
	C1067.341064,635.045410 1068.624634,623.205322 1069.983276,611.373840 
	C1071.943970,594.299438 1073.949463,577.230164 1076.032349,559.329651 
	C1065.262329,555.236755 1055.624756,549.783813 1047.905518,541.117432 
	C1036.704590,528.542114 1033.483765,514.260376 1035.936646,497.918488 
	C1038.355591,481.802704 1047.701416,470.951782 1060.619995,462.242340 
	C1072.023682,454.554291 1084.379517,453.027466 1097.747314,454.840393 
	C1113.484009,456.974579 1129.323242,458.350616 1145.117554,460.060852 
	C1151.704102,460.774048 1158.308105,461.360931 1164.871094,462.249084 
	C1183.226807,464.733063 1201.543945,467.513763 1219.919800,469.832031 
	C1228.786865,470.950653 1237.787231,470.994629 1246.665161,472.048615 
	C1266.372925,474.388275 1286.027344,477.175873 1305.732300,479.541382 
	C1314.941772,480.646942 1324.225708,481.118317 1333.461914,482.019440 
	C1343.377563,482.986877 1353.124756,484.665619 1361.952026,489.724457 
	C1377.432495,498.596130 1386.493408,511.772064 1387.819946,529.647522 
	C1388.307861,536.222595 1388.754395,543.321899 1386.863770,549.455994 
	C1380.857544,568.945374 1367.926880,581.759216 1347.449707,586.118652 
	C1343.923340,586.869446 1340.478149,588.001160 1335.859253,589.268677 
	C1333.897705,607.238403 1332.099854,625.297058 1329.912231,643.308411 
	C1327.639771,662.019775 1324.909668,680.675171 1322.542480,699.375671 
	C1321.502930,707.587769 1321.009155,715.868042 1320.019165,724.087524 
	C1317.527588,744.774719 1314.796753,765.433411 1312.364136,786.127319 
	C1311.320068,795.010437 1311.032959,803.983521 1309.956055,812.861694 
	C1307.567993,832.550476 1304.722900,852.184509 1302.415894,871.882141 
	C1301.221069,882.082825 1300.882446,892.381165 1299.944702,902.615845 
	C1299.516602,907.287537 1301.539429,909.749634 1305.550537,911.952820 
	C1318.914917,919.293457 1332.354248,926.575867 1345.193970,934.774536 
	C1363.650513,946.559570 1381.612305,959.134949 1397.406738,974.463989 
	C1405.774536,982.585266 1414.230103,990.648804 1422.115479,999.226196 
	C1432.668579,1010.705139 1442.857300,1022.531372 1452.858765,1034.495972 
	C1455.301270,1037.417847 1456.164307,1041.604248 1458.186523,1044.947510 
	C1460.553101,1048.860229 1463.393066,1052.486450 1465.879150,1057.266846 
	C1465.500244,1058.538818 1465.270020,1058.780762 1464.169189,1059.049316 
	C1453.079712,1059.075928 1442.860596,1059.075928 1432.205933,1059.075928 
	C1424.551636,1081.881348 1417.093750,1104.101562 1409.635864,1126.321655 
	C1409.025635,1126.362183 1408.415405,1126.402710 1407.805176,1126.443115 
	C1400.241577,1104.000122 1392.678101,1081.557251 1385.053589,1058.933350 
	C1378.782349,1058.933350 1373.496948,1058.892700 1368.212524,1058.944946 
	C1363.101807,1058.995605 1357.991943,1059.142090 1352.692383,1059.250244 
	C1354.602783,1066.321045 1356.139526,1072.008667 1356.933105,1077.809326 
	C1350.421753,1081.910034 1351.155029,1087.607910 1352.907593,1092.977417 
	C1355.151611,1099.852783 1360.924683,1102.018433 1368.080200,1102.733643 
	C1372.813477,1115.364258 1377.150513,1127.370850 1380.579102,1139.390503 
	C1366.744141,1142.738770 1353.817871,1146.074219 1340.714111,1148.508057 
	C1340.477051,1095.436279 1340.417358,1043.266235 1340.357300,990.874634 
	C1328.803711,990.874634 1318.636108,990.874634 1307.992188,990.874634 
	C1307.771118,993.985046 1307.428101,996.573853 1307.426514,999.162903 
	C1307.394775,1049.158203 1307.380981,1099.153564 1307.458740,1149.148682 
	C1307.463257,1152.069824 1308.272705,1154.989502 1307.955566,1158.146606 
	C1296.130127,1161.378784 1285.056396,1164.374390 1273.087891,1167.458252 
	C1247.812866,1170.030640 1223.558838,1173.545532 1198.857666,1170.310791 
	C1180.686157,1167.931152 1162.848633,1164.811157 1146.056763,1157.011597 
	C1146.364502,1137.146729 1146.740723,1118.175171 1146.316040,1099.221436 
	C1146.161865,1092.346069 1144.902954,1085.243408 1142.724731,1078.719604 
	C1138.564697,1066.260254 1129.383301,1059.291138 1116.209717,1057.660522 
	C1104.020386,1056.151855 1093.101685,1058.742920 1083.740723,1067.012695 
	C1082.908813,1067.747681 1081.580444,1067.920898 1080.276123,1068.436646 
	C1079.744263,1065.320557 1079.308350,1062.766968 1078.833130,1059.982910 
	C1067.956177,1059.982910 1057.436890,1059.982910 1046.040771,1059.982910 
	C1046.040771,1076.471558 1046.040771,1092.414551 1045.263184,1108.381836 
	C1042.033569,1107.548340 1039.557373,1106.752930 1037.133423,1105.821777 
	C1026.780396,1101.844604 1016.442627,1097.827148 1005.646667,1093.281982 
	C993.448120,1064.268677 981.702271,1035.797729 969.911438,1007.217896 
	C960.415649,1007.217896 951.540894,1007.217896 941.476624,1007.217896 
	C938.903809,1013.326294 936.207947,1019.643738 933.577576,1025.988403 
	C926.600952,1042.816284 919.652649,1059.655884 911.748657,1076.293945 
	C895.857605,1075.364380 881.286377,1077.714233 866.537354,1080.817139 
	C862.219177,1069.671509 855.587036,1061.600464 844.362854,1058.740234 
	C831.942322,1055.575073 819.978455,1056.803345 809.222229,1064.571899 
	C807.286499,1065.970093 805.219849,1067.187012 802.429199,1068.996094 
	C802.429199,1052.442017 802.429199,1037.255615 802.429199,1022.069214 
M1197.350586,1059.611450 
	C1183.065308,1065.510986 1173.319092,1075.711792 1167.648560,1090.116699 
	C1155.403564,1121.222290 1178.957642,1163.600830 1220.398926,1158.374634 
	C1229.951782,1157.169800 1237.977295,1153.102417 1245.836426,1147.217773 
	C1246.588989,1150.662964 1247.193604,1153.430786 1247.858154,1156.473145 
	C1258.888306,1156.296997 1269.328857,1157.339966 1280.661621,1155.686768 
	C1280.661621,1141.394409 1280.661621,1127.802490 1281.949097,1113.945312 
	C1298.932251,1099.138794 1304.328369,1080.622681 1298.345947,1059.180542 
	C1291.276733,1033.842651 1267.493774,1016.710083 1236.854980,1022.760986 
	C1217.559448,1026.571655 1203.317017,1038.334961 1197.350586,1059.611450 
M1158.922119,875.660339 
	C1151.362915,875.129150 1144.558228,877.343811 1137.999756,880.970947 
	C1121.701294,889.984741 1113.899536,910.626770 1119.370361,929.137207 
	C1125.303223,949.210449 1146.293701,958.962524 1161.501709,957.712036 
	C1183.355957,955.915039 1199.689941,937.943481 1199.963379,916.657776 
	C1200.213013,897.222961 1183.650879,875.869934 1158.922119,875.660339 
M1033.605347,974.227417 
	C1031.837891,975.733948 1029.917725,977.095520 1028.326660,978.769592 
	C1014.866760,992.931946 1018.205872,1016.117859 1035.072266,1025.974609 
	C1046.335571,1032.556885 1060.833984,1031.269043 1070.390991,1022.837341 
	C1081.456299,1013.075012 1084.058105,1000.960815 1079.067627,987.781372 
	C1073.536499,973.173645 1053.064453,962.497986 1033.605347,974.227417 
M1292.274292,621.186584 
	C1286.004395,632.023010 1288.388184,644.417236 1286.132568,655.987000 
	C1284.556152,664.073730 1284.437378,672.435303 1283.437134,680.645996 
	C1281.719482,694.747070 1279.631714,708.804871 1278.051758,722.920288 
	C1276.395874,737.715088 1275.353027,752.578735 1273.675659,767.370789 
	C1272.038330,781.812012 1269.825439,796.187439 1268.115967,810.621399 
	C1267.649536,814.559998 1267.536377,818.719788 1268.333252,822.555359 
	C1268.752197,824.572205 1271.331543,827.285583 1273.220215,827.535889 
	C1275.184814,827.796204 1278.260742,825.971375 1279.458740,824.145203 
	C1281.012207,821.777039 1281.585083,818.548096 1281.895752,815.617126 
	C1284.057617,795.225952 1285.999756,774.811646 1288.106689,754.414490 
	C1288.853760,747.180969 1289.858643,739.974060 1290.753784,732.755981 
	C1292.502441,718.654602 1294.261108,704.554565 1296.007202,690.452881 
	C1297.143799,681.273193 1298.471069,672.111206 1299.342529,662.906128 
	C1300.434570,651.369202 1301.457031,639.808350 1301.905884,628.234375 
	C1302.169800,621.432007 1301.491943,621.269714 1292.274292,621.186584 
M1253.479980,957.107178 
	C1250.559570,957.074951 1247.461304,956.393311 1244.752808,957.135010 
	C1237.329468,959.167908 1233.005127,966.613708 1234.273682,974.164673 
	C1235.313354,980.353455 1241.793213,985.739014 1248.414062,985.917114 
	C1255.513428,986.108093 1262.137451,981.095093 1263.407715,974.001587 
	C1264.739868,966.562134 1261.616943,961.115112 1253.479980,957.107178 
z"/>
<path fill="#C4DFF6" opacity="1.000000" stroke="none" 
	d="
M1466.076172,1057.933838 
	C1466.935913,1057.773438 1467.450073,1057.976074 1468.746338,1059.400146 
	C1469.274414,1067.874390 1469.020508,1075.126953 1468.401489,1083.125000 
	C1466.030884,1085.580444 1463.918945,1087.181641 1462.039917,1089.020752 
	C1456.504883,1094.438232 1456.210571,1103.956543 1461.521484,1111.636963 
	C1465.367310,1110.176758 1469.978394,1109.481812 1473.186523,1106.984497 
	C1479.540527,1102.038330 1486.490112,1101.638184 1493.993164,1102.787598 
	C1495.704224,1105.207397 1497.287476,1106.915527 1498.652222,1109.273560 
	C1487.907349,1125.114014 1477.379150,1140.303223 1466.875610,1155.509277 
	C1466.741455,1155.703369 1466.885742,1156.123657 1466.963867,1156.421631 
	C1467.046997,1156.738281 1467.206177,1157.035034 1467.680664,1158.186401 
	C1475.560913,1158.186401 1483.792114,1158.186401 1491.882812,1158.908691 
	C1486.964233,1161.785522 1482.186279,1163.939941 1476.369141,1166.562988 
	C1483.920532,1169.148315 1491.184937,1166.919189 1497.985718,1168.161743 
	C1505.385986,1169.514038 1512.569946,1172.050293 1519.848145,1174.070312 
	C1521.208740,1179.519653 1522.569458,1184.969116 1523.483887,1191.557861 
	C1523.941406,1193.833130 1524.844971,1194.968872 1525.748657,1196.104614 
	C1527.127808,1205.513306 1528.507080,1214.922119 1529.384521,1225.587280 
	C1527.301758,1230.019165 1528.621094,1231.572632 1531.810913,1232.080078 
	C1532.527710,1253.331421 1533.981445,1274.591919 1533.719116,1295.831055 
	C1533.523560,1311.677124 1531.691895,1327.574829 1529.553467,1343.308716 
	C1526.061035,1369.004517 1519.705322,1394.098755 1510.698242,1418.432983 
	C1499.838379,1447.773071 1486.189087,1475.685913 1469.334106,1502.180420 
	C1451.908691,1529.571411 1431.341431,1554.186890 1408.141846,1576.675049 
	C1385.643555,1598.483398 1360.919189,1617.605225 1333.615356,1632.954224 
	C1314.801025,1643.530762 1295.512207,1653.584717 1275.558350,1661.721680 
	C1255.685791,1669.825562 1235.362915,1677.243774 1213.737793,1680.216431 
	C1198.025513,1682.376343 1182.497192,1685.857788 1166.863892,1688.620239 
	C1162.966187,1689.308960 1158.983032,1689.818970 1155.033691,1689.857788 
	C1139.372314,1690.011841 1123.682861,1690.513306 1108.052979,1689.804443 
	C1092.188965,1689.084961 1076.306274,1687.654785 1060.569214,1685.521973 
	C1036.870605,1682.310303 1013.721436,1676.504395 991.101440,1668.625244 
	C959.554993,1657.636963 929.887390,1642.997192 901.613953,1625.127197 
	C873.595825,1607.418823 848.498596,1586.332397 825.787781,1562.445435 
	C803.994141,1539.523315 785.505554,1513.972900 769.406250,1486.712769 
	C751.538696,1456.458740 738.781067,1424.147827 728.998596,1390.444580 
	C723.516785,1371.558228 721.050598,1352.282471 717.746948,1333.039307 
	C713.830383,1310.225220 713.900452,1287.390747 714.182739,1264.483887 
	C714.296875,1255.223999 715.364746,1245.958618 716.335205,1236.731079 
	C717.372864,1226.865356 718.401245,1216.967163 720.183044,1207.219971 
	C721.964294,1197.475952 724.709229,1187.909668 726.962646,1178.249512 
	C728.758057,1170.552246 730.449524,1162.830688 732.676208,1153.802612 
	C739.988464,1149.941528 743.408997,1143.992554 747.453308,1139.207153 
	C748.912109,1141.989380 750.141113,1144.002319 752.486816,1147.844238 
	C755.863098,1142.620483 758.278748,1139.277954 760.264221,1135.697021 
	C762.163635,1132.271606 763.022705,1127.993408 768.465515,1128.906250 
	C768.746277,1138.911499 768.746277,1148.021118 768.746277,1157.218994 
	C774.774109,1157.590942 779.356506,1157.873657 783.815613,1158.888306 
	C772.412231,1189.687744 764.942322,1220.808594 762.458374,1252.695190 
	C758.144226,1308.076782 764.104126,1362.432007 784.537354,1414.537231 
	C801.467590,1457.709839 824.897095,1497.068359 856.490601,1531.176514 
	C890.122986,1567.486084 929.299866,1596.162842 974.599304,1616.646606 
	C1011.686218,1633.416504 1050.465088,1643.712891 1090.694092,1647.552979 
	C1117.832520,1650.143433 1145.327515,1649.409058 1172.450928,1645.664917 
	C1201.518921,1641.652222 1229.867920,1634.468506 1257.138306,1623.367920 
	C1318.272461,1598.482910 1369.802856,1560.634888 1410.275391,1508.425903 
	C1455.343750,1450.288208 1480.168945,1384.053101 1485.629883,1310.821289 
	C1487.735229,1282.588623 1486.521851,1254.238525 1481.623657,1226.233276 
	C1476.387817,1196.297974 1467.649658,1167.377930 1455.633301,1139.444824 
	C1452.692505,1132.608765 1448.381348,1127.561646 1440.894287,1125.192627 
	C1443.698730,1117.255127 1446.471558,1110.123901 1449.101318,1102.940308 
	C1454.454956,1088.316040 1459.731445,1073.663696 1465.039673,1059.022827 
	C1465.270020,1058.780762 1465.500244,1058.538818 1466.076172,1057.933838 
z"/>
<path fill="#0C0C0C" opacity="1.000000" stroke="none" 
	d="
M491.376465,1028.372559 
	C499.427002,1042.541016 500.313904,1056.795410 495.735748,1071.392212 
	C491.094940,1086.188965 478.850616,1093.782104 464.780640,1101.187866 
	C478.683777,1119.460205 492.032288,1137.003662 506.695648,1156.275269 
	C492.913574,1156.275269 480.996948,1156.716309 469.159851,1155.941895 
	C466.455841,1155.764893 463.459137,1151.765015 461.572083,1148.885742 
	C454.652008,1138.327148 448.234924,1127.440552 441.435089,1116.801025 
	C438.594666,1112.356812 435.269470,1108.222534 431.062714,1102.429810 
	C430.309082,1106.158447 429.574646,1108.158813 429.553284,1110.166870 
	C429.429413,1121.826782 429.530579,1133.489014 429.423279,1145.149292 
	C429.393677,1148.367554 428.911926,1151.581665 428.586090,1155.402344 
	C417.872162,1155.402344 408.048492,1155.402344 398.325348,1155.402344 
	C395.972809,1148.173462 395.320374,1020.123779 397.578430,1007.241333 
	C399.973541,1007.030273 402.538513,1006.617249 405.104828,1006.608704 
	C421.430542,1006.554199 437.756866,1006.657471 454.082336,1006.574951 
	C470.529816,1006.491821 482.614288,1013.900391 491.376465,1028.372559 
M436.904266,1078.140991 
	C440.535339,1077.839844 444.253571,1077.935059 447.780243,1077.159424 
	C456.547455,1075.231445 464.183136,1071.468018 466.634308,1061.824951 
	C469.059021,1052.286255 468.357910,1043.129639 460.349030,1036.308594 
	C457.509155,1033.889771 453.524719,1031.983887 449.860046,1031.548096 
	C443.435364,1030.783691 436.854218,1031.334717 429.515320,1031.334717 
	C429.515320,1045.983032 429.537872,1059.500854 429.500946,1073.018433 
	C429.490479,1076.844727 431.411865,1078.393066 436.904266,1078.140991 
z"/>
<path fill="#040707" opacity="1.000000" stroke="none" 
	d="
M783.938904,1158.156494 
	C779.356506,1157.873657 774.774109,1157.590942 768.746277,1157.218994 
	C768.746277,1148.021118 768.746277,1138.911499 768.737488,1128.013184 
	C768.836609,1111.464111 768.944580,1096.703857 769.052490,1081.943604 
	C769.402893,1067.434692 769.896362,1052.927368 770.064392,1038.416260 
	C770.240295,1023.224487 770.103699,1008.028992 770.103699,992.217529 
	C780.145325,992.217529 789.546204,992.217529 799.020142,992.217529 
	C802.778625,1001.704651 801.323669,1011.084778 802.243652,1021.142273 
	C802.429199,1037.255615 802.429199,1052.442017 802.429199,1068.996094 
	C805.219849,1067.187012 807.286499,1065.970093 809.222229,1064.571899 
	C819.978455,1056.803345 831.942322,1055.575073 844.362854,1058.740234 
	C855.587036,1061.600464 862.219177,1069.671509 866.604797,1081.599854 
	C870.003784,1099.738770 870.468872,1148.168457 867.371948,1158.310303 
	C858.466614,1158.310303 849.195862,1158.310303 839.291504,1158.095947 
	C837.538269,1156.635742 836.418762,1155.390015 835.522217,1153.220459 
	C835.781982,1135.831665 835.944763,1119.364990 835.740906,1102.902954 
	C835.703491,1099.876831 834.179077,1096.869385 833.472778,1093.045166 
	C827.607544,1081.932739 815.717834,1081.105713 808.091736,1090.663818 
	C802.184631,1098.067505 801.235474,1106.745117 802.292297,1116.752319 
	C802.053833,1130.762573 802.053833,1143.852417 802.053833,1157.217407 
	C795.048645,1157.580566 789.493774,1157.868530 783.938904,1158.156494 
z"/>
<path fill="#040707" opacity="1.000000" stroke="none" 
	d="
M569.178589,1157.407837 
	C546.324219,1160.067383 530.193481,1150.374512 521.195312,1131.372681 
	C512.735718,1113.508423 512.415527,1094.445068 525.296692,1077.699829 
	C537.416931,1061.943604 553.775330,1054.789062 573.549500,1058.986328 
	C581.063110,1060.581177 587.960144,1065.080811 595.856140,1068.574097 
	C596.703064,1066.163574 597.718628,1063.273193 598.810974,1060.164185 
	C608.385559,1059.518555 617.849365,1058.880371 627.942627,1058.199707 
	C627.942627,1091.252808 627.942627,1122.969116 627.942627,1155.378418 
	C617.808350,1155.378418 608.604431,1155.378418 598.788086,1155.378418 
	C598.092834,1152.525513 597.350403,1149.478760 596.403442,1145.593018 
	C587.797852,1151.031372 579.955017,1156.675903 569.178589,1157.407837 
M559.932007,1129.450562 
	C568.029968,1134.081787 576.170776,1134.412231 584.495911,1129.945068 
	C593.368347,1125.184326 597.590576,1117.055176 597.291870,1107.823730 
	C596.955872,1097.440552 592.259033,1088.332642 581.434753,1084.596558 
	C571.962280,1081.327026 563.023926,1082.843506 555.625000,1089.948486 
	C545.165771,1099.992188 546.585144,1117.114990 559.932007,1129.450562 
z"/>
<path fill="#0C0C0C" opacity="1.000000" stroke="none" 
	d="
M1662.626099,1063.677734 
	C1682.421631,1071.758301 1689.620728,1087.117065 1690.343506,1106.552612 
	C1690.390747,1107.822510 1689.925659,1109.111694 1689.523438,1111.383301 
	C1664.892822,1111.383301 1640.376831,1111.383301 1615.949219,1111.383301 
	C1615.209961,1122.568115 1620.720703,1131.491821 1629.232300,1134.054565 
	C1640.552979,1137.462891 1649.152588,1133.370117 1656.663696,1120.382202 
	C1663.410889,1120.382202 1670.687622,1120.131592 1677.939331,1120.449829 
	C1685.779663,1120.793945 1687.733398,1124.337280 1684.555908,1131.749634 
	C1680.554443,1141.084106 1673.408447,1147.331543 1664.398682,1151.510986 
	C1641.143066,1162.298950 1618.880127,1161.161011 1597.734741,1145.896484 
	C1582.942505,1135.218262 1575.822266,1107.682983 1583.134766,1089.750000 
	C1590.975342,1070.522461 1606.107300,1061.903687 1625.083618,1058.631714 
	C1637.643799,1056.466187 1650.347656,1056.438843 1662.626099,1063.677734 
M1652.362793,1096.036011 
	C1654.524292,1095.787842 1656.685791,1095.539551 1658.900513,1095.285278 
	C1656.132324,1081.922729 1651.058960,1077.969971 1637.333496,1077.935425 
	C1623.180908,1077.899780 1617.324707,1082.229004 1614.626587,1095.147949 
	C1626.542236,1099.526978 1638.609253,1097.804932 1652.362793,1096.036011 
z"/>
<path fill="#0C0C0C" opacity="1.000000" stroke="none" 
	d="
M747.223450,1138.437744 
	C743.408997,1143.992554 739.988464,1149.941528 732.701416,1152.915039 
	C718.185486,1158.352783 703.693726,1158.632568 688.996216,1157.830811 
	C679.248291,1157.298950 670.702759,1153.506104 663.220764,1148.083984 
	C654.949951,1142.090088 650.839478,1132.851929 647.913452,1121.807129 
	C658.648071,1120.845581 668.657776,1121.989990 679.195801,1121.512085 
	C680.930420,1133.345215 690.253906,1135.231689 698.845459,1137.538940 
	C704.474915,1139.050781 709.534241,1135.831665 713.181152,1132.146973 
	C716.120422,1129.177246 715.686584,1124.206787 712.421692,1121.270142 
	C709.625671,1118.755249 705.884338,1116.803711 702.233154,1115.818726 
	C691.360352,1112.885376 680.253113,1110.821655 669.377991,1107.895874 
	C660.832031,1105.596436 654.290527,1100.758911 653.327942,1091.035156 
	C652.244812,1080.093506 653.951294,1070.044067 664.940247,1064.676880 
	C670.817017,1061.806763 677.190002,1059.159424 683.586731,1058.335938 
	C692.777405,1057.152832 702.229431,1057.128906 711.506775,1057.677002 
	C729.070923,1058.715210 741.928894,1070.061035 744.205261,1086.800781 
	C735.547913,1086.861084 727.032776,1087.153564 718.545837,1086.788208 
	C716.790710,1086.712769 714.851135,1084.426392 713.493530,1082.755249 
	C708.188721,1076.225220 696.079529,1073.718018 689.439697,1078.615967 
	C687.116089,1080.330078 684.986084,1083.875732 684.971191,1086.597046 
	C684.961365,1088.402344 688.602356,1091.182373 691.067932,1091.862427 
	C697.756165,1093.707153 704.693787,1094.640991 711.523743,1095.980713 
	C723.696594,1098.368408 735.306824,1101.933716 744.469116,1112.972168 
	C749.041443,1122.009277 748.837097,1130.160034 747.223450,1138.437744 
z"/>
<path fill="#0C0C0C" opacity="1.000000" stroke="none" 
	d="
M1468.766602,1082.379639 
	C1469.020508,1075.126953 1469.274414,1067.874390 1469.487793,1059.771240 
	C1498.404053,1058.817627 1527.360962,1058.673706 1556.317871,1058.694580 
	C1558.443237,1058.696167 1560.567993,1059.888062 1563.780151,1060.853271 
	C1551.693604,1085.359253 1534.675903,1105.910522 1521.697510,1128.767212 
	C1525.102783,1133.365479 1529.270020,1132.293945 1533.086548,1132.306396 
	C1544.025024,1132.341675 1554.963745,1132.318848 1566.253174,1132.318848 
	C1569.462646,1140.416504 1567.594727,1148.298340 1567.790161,1157.240601 
	C1550.896851,1157.374634 1534.362671,1157.505737 1516.416992,1157.656006 
	C1514.675049,1157.809448 1514.344360,1157.943970 1513.113159,1157.888428 
	C1505.482910,1157.861084 1498.753174,1158.023682 1492.023315,1158.186401 
	C1483.792114,1158.186401 1475.560913,1158.186401 1467.680664,1158.186401 
	C1467.206177,1157.035034 1467.046997,1156.738281 1466.963867,1156.421631 
	C1466.885742,1156.123657 1466.741455,1155.703369 1466.875610,1155.509277 
	C1477.379150,1140.303223 1487.907349,1125.114014 1499.201538,1108.883789 
	C1505.205078,1100.394043 1510.440674,1092.943848 1516.398071,1084.466675 
	C1513.159424,1084.176514 1511.593018,1083.897339 1510.030518,1083.917969 
	C1497.397095,1084.084595 1484.764404,1084.307861 1471.549194,1084.189209 
	C1470.233521,1083.369629 1469.500000,1082.874634 1468.766602,1082.379639 
z"/>
<path fill="#0C0C0C" opacity="1.000000" stroke="none" 
	d="
M1769.499878,1083.020508 
	C1753.787109,1085.124878 1745.881226,1093.521240 1745.213745,1109.056763 
	C1744.699463,1121.026855 1745.080566,1133.035522 1745.066162,1145.026978 
	C1745.061768,1148.642944 1745.065552,1152.258789 1745.065552,1157.027100 
	C1739.146362,1157.189697 1733.976196,1157.384644 1728.804321,1157.458496 
	C1723.860474,1157.529053 1718.914917,1157.473755 1714.187134,1157.473755 
	C1711.887451,1148.986084 1711.805176,1070.289551 1714.186157,1060.225342 
	C1723.057495,1060.225342 1732.295532,1059.807251 1741.441162,1060.541748 
	C1743.531372,1060.709473 1745.302124,1064.853394 1747.682495,1067.725586 
	C1756.552856,1061.465820 1766.491333,1053.843140 1780.284058,1059.913086 
	C1780.284058,1068.515625 1780.284058,1077.008301 1780.284058,1086.042603 
	C1776.481567,1084.923462 1773.385986,1084.012329 1769.499878,1083.020508 
z"/>
<path fill="#D6F0F9" opacity="1.000000" stroke="none" 
	d="
M747.453308,1139.207153 
	C748.837097,1130.160034 749.041443,1122.009277 744.918152,1113.434326 
	C746.833496,1111.658691 749.706909,1111.237061 750.773926,1109.621948 
	C756.683105,1100.677856 762.152771,1091.443115 768.412720,1082.125732 
	C768.944580,1096.703857 768.836609,1111.464111 768.456726,1127.117432 
	C763.022705,1127.993408 762.163635,1132.271606 760.264221,1135.697021 
	C758.278748,1139.277954 755.863098,1142.620483 752.486816,1147.844238 
	C750.141113,1144.002319 748.912109,1141.989380 747.453308,1139.207153 
z"/>
<path fill="#D6F0F9" opacity="1.000000" stroke="none" 
	d="
M1491.882812,1158.908691 
	C1498.753174,1158.023682 1505.482910,1157.861084 1513.319824,1158.307129 
	C1514.821777,1159.424927 1515.327271,1159.773438 1515.943359,1159.961426 
	C1517.222046,1164.169800 1518.500732,1168.378296 1519.813721,1173.328491 
	C1512.569946,1172.050293 1505.385986,1169.514038 1497.985718,1168.161743 
	C1491.184937,1166.919189 1483.920532,1169.148315 1476.369141,1166.562988 
	C1482.186279,1163.939941 1486.964233,1161.785522 1491.882812,1158.908691 
z"/>
<path fill="#D6F0F9" opacity="1.000000" stroke="none" 
	d="
M1531.864502,1231.391602 
	C1528.621094,1231.572632 1527.301758,1230.019165 1529.360840,1226.437988 
	C1530.531982,1227.589233 1531.225098,1229.146118 1531.864502,1231.391602 
z"/>
<path fill="#D6F0F9" opacity="1.000000" stroke="none" 
	d="
M1525.785767,1195.494751 
	C1524.844971,1194.968872 1523.941406,1193.833130 1523.475220,1192.357910 
	C1524.549438,1192.973999 1525.186157,1193.929443 1525.785767,1195.494751 
z"/>
<path fill="#C4DFF6" opacity="1.000000" stroke="none" 
	d="
M1515.978271,1159.490723 
	C1515.327271,1159.773438 1514.821777,1159.424927 1514.220215,1158.497070 
	C1514.344360,1157.943970 1514.675049,1157.809448 1515.501953,1157.875488 
	C1515.998291,1158.076050 1516.013306,1159.020020 1515.978271,1159.490723 
z"/>
<path fill="#50C7C3" opacity="1.000000" stroke="none" 
	d="
M783.815613,1158.888306 
	C789.493774,1157.868530 795.048645,1157.580566 802.053833,1157.217407 
	C802.053833,1143.852417 802.053833,1130.762573 802.715210,1116.314453 
	C805.475586,1112.503052 807.574646,1110.049805 809.780396,1108.415283 
	C811.730835,1123.734985 819.570496,1135.599976 827.131226,1147.486572 
	C828.920410,1150.299438 832.528015,1151.955933 835.299194,1154.144287 
	C836.418762,1155.390015 837.538269,1156.635742 839.377380,1158.769043 
	C841.479370,1161.490479 842.515259,1163.815918 844.302490,1165.075439 
	C853.508911,1171.563721 862.464233,1178.599609 872.324951,1183.932129 
	C899.934387,1198.862305 929.764832,1207.500488 960.254211,1214.665161 
	C982.313538,1219.849121 1004.601868,1222.336914 1026.981812,1223.717651 
	C1057.833252,1225.620483 1088.577881,1222.943359 1119.112549,1217.994873 
	C1148.265381,1213.270508 1176.890015,1206.402954 1204.719727,1196.559326 
	C1222.225220,1190.367432 1239.480469,1183.440796 1256.691772,1176.458496 
	C1262.696167,1174.022461 1268.232666,1170.432739 1273.982788,1167.369995 
	C1285.056396,1164.374390 1296.130127,1161.378784 1308.823975,1157.976929 
	C1320.038452,1157.570557 1329.632812,1157.570557 1339.723267,1157.570557 
	C1340.162354,1154.502930 1340.526978,1151.956299 1340.891479,1149.409546 
	C1353.817871,1146.074219 1366.744141,1142.738770 1381.072754,1139.901001 
	C1385.967041,1146.905884 1386.175781,1155.218506 1393.526489,1159.415161 
	C1387.030396,1177.442749 1379.175659,1194.457520 1372.921021,1212.609497 
	C1385.257324,1212.609497 1396.085815,1212.609497 1407.061646,1212.609497 
	C1408.229980,1209.740112 1409.258423,1207.313843 1410.211426,1204.858276 
	C1420.413818,1178.566650 1430.604248,1152.270386 1440.797974,1125.975464 
	C1448.381348,1127.561646 1452.692505,1132.608765 1455.633301,1139.444824 
	C1467.649658,1167.377930 1476.387817,1196.297974 1481.623657,1226.233276 
	C1486.521851,1254.238525 1487.735229,1282.588623 1485.629883,1310.821289 
	C1480.168945,1384.053101 1455.343750,1450.288208 1410.275391,1508.425903 
	C1369.802856,1560.634888 1318.272461,1598.482910 1257.138306,1623.367920 
	C1229.867920,1634.468506 1201.518921,1641.652222 1172.450928,1645.664917 
	C1145.327515,1649.409058 1117.832520,1650.143433 1090.694092,1647.552979 
	C1050.465088,1643.712891 1011.686218,1633.416504 974.599304,1616.646606 
	C929.299866,1596.162842 890.122986,1567.486084 856.490601,1531.176514 
	C824.897095,1497.068359 801.467590,1457.709839 784.537354,1414.537231 
	C764.104126,1362.432007 758.144226,1308.076782 762.458374,1252.695190 
	C764.942322,1220.808594 772.412231,1189.687744 783.815613,1158.888306 
M1456.035034,1281.101318 
	C1455.688599,1255.911499 1450.189575,1231.664185 1442.526367,1207.828857 
	C1441.728149,1205.345703 1440.894775,1202.312012 1439.038940,1200.881592 
	C1437.000000,1199.310303 1433.492554,1198.253174 1431.105225,1198.860352 
	C1427.758545,1199.711426 1425.921265,1202.884644 1426.826660,1206.767822 
	C1427.127686,1208.059082 1427.649292,1209.298828 1428.069336,1210.562378 
	C1440.414917,1247.701294 1445.150879,1285.665649 1440.134888,1324.619995 
	C1437.668579,1343.774292 1433.943970,1362.684692 1427.047852,1380.809448 
	C1423.974487,1388.887085 1420.375122,1396.762939 1417.208984,1404.807007 
	C1414.585815,1411.471313 1415.756470,1416.103638 1420.126221,1417.740112 
	C1424.390503,1419.337158 1427.214722,1417.644043 1430.277100,1410.887451 
	C1433.708740,1403.316162 1437.096069,1395.696899 1439.949585,1387.896240 
	C1452.329224,1354.051880 1457.757935,1319.099976 1456.035034,1281.101318 
M1349.556763,1504.674072 
	C1346.875366,1507.144165 1343.935425,1509.393188 1341.582642,1512.144409 
	C1339.071777,1515.080566 1339.609131,1518.335571 1342.224487,1521.118652 
	C1344.540039,1523.582031 1347.273193,1524.217651 1350.312134,1522.467896 
	C1351.746582,1521.642090 1353.194092,1520.797485 1354.486694,1519.773315 
	C1370.994629,1506.692749 1385.521606,1491.765747 1396.943604,1473.969971 
	C1398.194946,1472.020508 1399.425903,1470.044922 1400.483765,1467.987549 
	C1402.104248,1464.835815 1401.088135,1462.129272 1398.543335,1460.012817 
	C1395.598267,1457.563477 1392.327881,1457.507935 1389.481323,1459.997681 
	C1387.780029,1461.485962 1386.614380,1463.606689 1385.285889,1465.497925 
	C1375.320068,1479.684814 1364.170166,1492.803711 1349.556763,1504.674072 
z"/>
<path fill="#47A49F" opacity="1.000000" stroke="none" 
	d="
M1273.087891,1167.458252 
	C1268.232666,1170.432739 1262.696167,1174.022461 1256.691772,1176.458496 
	C1239.480469,1183.440796 1222.225220,1190.367432 1204.719727,1196.559326 
	C1176.890015,1206.402954 1148.265381,1213.270508 1119.112549,1217.994873 
	C1088.577881,1222.943359 1057.833252,1225.620483 1026.981812,1223.717651 
	C1004.601868,1222.336914 982.313538,1219.849121 960.254211,1214.665161 
	C929.764832,1207.500488 899.934387,1198.862305 872.324951,1183.932129 
	C862.464233,1178.599609 853.508911,1171.563721 844.302490,1165.075439 
	C842.515259,1163.815918 841.479370,1161.490479 840.011047,1158.983398 
	C849.195862,1158.310303 858.466614,1158.310303 867.371948,1158.310303 
	C870.468872,1148.168457 870.003784,1099.738770 866.950989,1082.229004 
	C881.286377,1077.714233 895.857605,1075.364380 911.713562,1077.042969 
	C902.134094,1104.141235 891.645325,1130.293335 880.722900,1157.526611 
	C893.518555,1157.526611 904.626587,1157.526611 916.174316,1157.526611 
	C919.860962,1147.559082 923.410278,1137.962891 927.105530,1127.972168 
	C946.674011,1127.569702 965.822327,1127.751465 984.636230,1127.776367 
	C988.710022,1138.767700 992.265991,1148.361938 995.698181,1157.622070 
	C1007.586304,1157.622070 1018.486694,1157.622070 1030.807739,1157.622070 
	C1029.149780,1153.109009 1027.874146,1149.443848 1026.464233,1145.830933 
	C1019.695862,1128.487549 1012.891113,1111.158569 1006.099365,1093.824463 
	C1016.442627,1097.827148 1026.780396,1101.844604 1037.133423,1105.821777 
	C1039.557373,1106.752930 1042.033569,1107.548340 1045.439209,1109.267578 
	C1046.325684,1118.065796 1046.027954,1126.009277 1046.256958,1133.937500 
	C1046.481323,1141.696777 1044.960571,1149.618042 1047.567261,1157.688965 
	C1058.399902,1157.552612 1068.811035,1158.225464 1079.114258,1157.271606 
	C1079.653198,1147.078125 1080.121826,1138.213379 1081.324707,1129.373779 
	C1092.213257,1134.441284 1102.367676,1139.483398 1112.802246,1145.297363 
	C1113.332520,1149.840088 1113.582764,1153.610840 1113.868164,1157.911865 
	C1125.363037,1157.911865 1135.585693,1157.911865 1145.808472,1157.911865 
	C1162.848633,1164.811157 1180.686157,1167.931152 1198.857666,1170.310791 
	C1223.558838,1173.545532 1247.812866,1170.030640 1273.087891,1167.458252 
z"/>
<path fill="#040707" opacity="1.000000" stroke="none" 
	d="
M1005.646729,1093.281982 
	C1012.891113,1111.158569 1019.695862,1128.487549 1026.464233,1145.830933 
	C1027.874146,1149.443848 1029.149780,1153.109009 1030.807739,1157.622070 
	C1018.486694,1157.622070 1007.586304,1157.622070 995.698181,1157.622070 
	C992.265991,1148.361938 988.710022,1138.767700 984.636230,1127.776367 
	C965.822327,1127.751465 946.674011,1127.569702 927.105530,1127.972168 
	C923.410278,1137.962891 919.860962,1147.559082 916.174316,1157.526611 
	C904.626587,1157.526611 893.518555,1157.526611 880.722900,1157.526611 
	C891.645325,1130.293335 902.134094,1104.141235 912.658020,1077.239990 
	C919.652649,1059.655884 926.600952,1042.816284 933.577576,1025.988403 
	C936.207947,1019.643738 938.903809,1013.326294 941.476624,1007.217896 
	C951.540894,1007.217896 960.415649,1007.217896 969.911438,1007.217896 
	C981.702271,1035.797729 993.448120,1064.268677 1005.646729,1093.281982 
M967.320190,1080.506470 
	C964.405457,1069.740479 960.841125,1059.234497 954.451477,1049.471313 
	C951.320801,1058.835693 948.190125,1068.199951 944.195557,1078.923706 
	C942.221069,1085.677490 938.265747,1091.910522 938.351440,1100.086548 
	C944.704163,1100.086548 950.590332,1100.146973 956.474731,1100.069458 
	C962.175171,1099.994507 967.873779,1099.777710 975.033691,1099.583740 
	C972.189331,1092.678589 969.981628,1087.319092 967.320190,1080.506470 
z"/>
<path fill="#040707" opacity="1.000000" stroke="none" 
	d="
M1280.661621,1114.210571 
	C1280.661621,1127.802490 1280.661621,1141.394409 1280.661621,1155.686768 
	C1269.328857,1157.339966 1258.888306,1156.296997 1247.858154,1156.473145 
	C1247.193604,1153.430786 1246.588989,1150.662964 1245.836426,1147.217773 
	C1237.977295,1153.102417 1229.951782,1157.169800 1220.398926,1158.374634 
	C1178.957642,1163.600830 1155.403564,1121.222290 1167.648560,1090.116699 
	C1173.319092,1075.711792 1183.065308,1065.510986 1198.731934,1059.176270 
	C1216.496826,1055.057251 1231.764404,1057.126831 1245.471313,1068.543701 
	C1246.548828,1064.596436 1247.373535,1061.575562 1248.091553,1058.945190 
	C1258.930298,1058.945190 1269.111694,1058.945190 1280.192993,1058.945190 
	C1280.192993,1068.481079 1280.132080,1077.398315 1280.209839,1086.314331 
	C1280.290894,1095.613647 1280.505493,1104.911865 1280.661621,1114.210571 
M1201.141968,1101.345215 
	C1200.817749,1104.269409 1199.953857,1107.253418 1200.269409,1110.106934 
	C1201.280273,1119.251709 1205.674072,1126.354736 1214.377563,1130.076904 
	C1222.992554,1133.761475 1231.017700,1132.950073 1239.263306,1125.591431 
	C1240.979614,1123.164429 1243.069824,1120.918579 1244.348389,1118.279297 
	C1250.293335,1106.006592 1244.453125,1090.798706 1232.042603,1085.734131 
	C1219.480469,1080.607666 1207.195435,1086.529419 1201.141968,1101.345215 
z"/>
<path fill="#040707" opacity="1.000000" stroke="none" 
	d="
M1440.894287,1125.192627 
	C1430.604248,1152.270386 1420.413818,1178.566650 1410.211426,1204.858276 
	C1409.258423,1207.313843 1408.229980,1209.740112 1407.061646,1212.609497 
	C1396.085815,1212.609497 1385.257324,1212.609497 1372.921021,1212.609497 
	C1379.175659,1194.457520 1387.030396,1177.442749 1393.526489,1159.415161 
	C1386.175781,1155.218506 1385.967041,1146.905884 1381.981201,1139.888062 
	C1377.150513,1127.370850 1372.813477,1115.364258 1368.063965,1102.003052 
	C1364.326538,1092.997803 1361.001343,1085.346924 1357.676270,1077.696167 
	C1356.139526,1072.008667 1354.602783,1066.321045 1352.692383,1059.250244 
	C1357.991943,1059.142090 1363.101807,1058.995605 1368.212524,1058.944946 
	C1373.496948,1058.892700 1378.782349,1058.933350 1385.053589,1058.933350 
	C1392.678101,1081.557251 1400.241577,1104.000122 1407.805176,1126.443115 
	C1408.415405,1126.402710 1409.025635,1126.362183 1409.635864,1126.321655 
	C1417.093750,1104.101562 1424.551636,1081.881348 1432.205933,1059.075928 
	C1442.860596,1059.075928 1453.079712,1059.075928 1464.169189,1059.049316 
	C1459.731445,1073.663696 1454.454956,1088.316040 1449.101318,1102.940308 
	C1446.471558,1110.123901 1443.698730,1117.255127 1440.894287,1125.192627 
z"/>
<path fill="#040707" opacity="1.000000" stroke="none" 
	d="
M1080.590332,1129.348511 
	C1080.121826,1138.213379 1079.653198,1147.078125 1079.114258,1157.271606 
	C1068.811035,1158.225464 1058.399902,1157.552612 1047.567261,1157.688965 
	C1044.960571,1149.618042 1046.481323,1141.696777 1046.256958,1133.937500 
	C1046.027954,1126.009277 1046.325684,1118.065796 1046.216797,1109.243164 
	C1046.040771,1092.414551 1046.040771,1076.471558 1046.040771,1059.982910 
	C1057.436890,1059.982910 1067.956177,1059.982910 1078.833130,1059.982910 
	C1079.308350,1062.766968 1079.744263,1065.320557 1080.276123,1068.436646 
	C1081.580444,1067.920898 1082.908813,1067.747681 1083.740723,1067.012695 
	C1093.101685,1058.742920 1104.020386,1056.151855 1116.209717,1057.660522 
	C1129.383301,1059.291138 1138.564697,1066.260254 1142.724731,1078.719604 
	C1144.902954,1085.243408 1146.161865,1092.346069 1146.316040,1099.221436 
	C1146.740723,1118.175171 1146.364502,1137.146729 1146.056763,1157.011597 
	C1135.585693,1157.911865 1125.363037,1157.911865 1113.868164,1157.911865 
	C1113.582764,1153.610840 1113.332520,1149.840088 1113.175781,1144.530273 
	C1113.331909,1129.696289 1113.427856,1116.401367 1113.424805,1103.106323 
	C1113.424316,1100.796387 1113.262329,1098.426758 1112.738770,1096.186523 
	C1109.824463,1083.717529 1096.449219,1079.494629 1087.595337,1088.813354 
	C1083.943970,1092.656372 1081.013184,1098.398315 1080.362915,1103.602417 
	C1079.308350,1112.043213 1080.402954,1120.752563 1080.590332,1129.348511 
z"/>
<path fill="#040707" opacity="1.000000" stroke="none" 
	d="
M1340.714111,1148.508057 
	C1340.526978,1151.956299 1340.162354,1154.502930 1339.723267,1157.570557 
	C1329.632812,1157.570557 1320.038452,1157.570557 1309.575806,1157.740234 
	C1308.272705,1154.989502 1307.463257,1152.069824 1307.458740,1149.148682 
	C1307.380981,1099.153564 1307.394775,1049.158203 1307.426514,999.162903 
	C1307.428101,996.573853 1307.771118,993.985046 1307.992188,990.874634 
	C1318.636108,990.874634 1328.803711,990.874634 1340.357300,990.874634 
	C1340.417358,1043.266235 1340.477051,1095.436279 1340.714111,1148.508057 
z"/>
<path fill="#47A49F" opacity="1.000000" stroke="none" 
	d="
M1159.812622,875.679626 
	C1183.650879,875.869934 1200.213013,897.222961 1199.963379,916.657776 
	C1199.689941,937.943481 1183.355957,955.915039 1161.501709,957.712036 
	C1146.293701,958.962524 1125.303223,949.210449 1119.370361,929.137207 
	C1113.899536,910.626770 1121.701294,889.984741 1137.999756,880.970947 
	C1144.558228,877.343811 1151.362915,875.129150 1159.812622,875.679626 
z"/>
<path fill="#50C7C3" opacity="1.000000" stroke="none" 
	d="
M1281.305420,1114.077881 
	C1280.505493,1104.911865 1280.290894,1095.613647 1280.209839,1086.314331 
	C1280.132080,1077.398315 1280.192993,1068.481079 1280.192993,1058.945190 
	C1269.111694,1058.945190 1258.930298,1058.945190 1248.091553,1058.945190 
	C1247.373535,1061.575562 1246.548828,1064.596436 1245.471313,1068.543701 
	C1231.764404,1057.126831 1216.496826,1055.057251 1199.268555,1058.763184 
	C1203.317017,1038.334961 1217.559448,1026.571655 1236.854980,1022.760986 
	C1267.493774,1016.710083 1291.276733,1033.842651 1298.345947,1059.180542 
	C1304.328369,1080.622681 1298.932251,1099.138794 1281.305420,1114.077881 
z"/>
<path fill="#50C7C3" opacity="1.000000" stroke="none" 
	d="
M1034.271362,973.873779 
	C1053.064453,962.497986 1073.536499,973.173645 1079.067627,987.781372 
	C1084.058105,1000.960815 1081.456299,1013.075012 1070.390991,1022.837341 
	C1060.833984,1031.269043 1046.335571,1032.556885 1035.072266,1025.974609 
	C1018.205872,1016.117859 1014.866760,992.931946 1028.326660,978.769592 
	C1029.917725,977.095520 1031.837891,975.733948 1034.271362,973.873779 
z"/>
<path fill="#D6F0F9" opacity="1.000000" stroke="none" 
	d="
M1292.993408,620.797485 
	C1301.491943,621.269714 1302.169800,621.432007 1301.905884,628.234375 
	C1301.457031,639.808350 1300.434570,651.369202 1299.342529,662.906128 
	C1298.471069,672.111206 1297.143799,681.273193 1296.007202,690.452881 
	C1294.261108,704.554565 1292.502441,718.654602 1290.753784,732.755981 
	C1289.858643,739.974060 1288.853760,747.180969 1288.106689,754.414490 
	C1285.999756,774.811646 1284.057617,795.225952 1281.895752,815.617126 
	C1281.585083,818.548096 1281.012207,821.777039 1279.458740,824.145203 
	C1278.260742,825.971375 1275.184814,827.796204 1273.220215,827.535889 
	C1271.331543,827.285583 1268.752197,824.572205 1268.333252,822.555359 
	C1267.536377,818.719788 1267.649536,814.559998 1268.115967,810.621399 
	C1269.825439,796.187439 1272.038330,781.812012 1273.675659,767.370789 
	C1275.353027,752.578735 1276.395874,737.715088 1278.051758,722.920288 
	C1279.631714,708.804871 1281.719482,694.747070 1283.437134,680.645996 
	C1284.437378,672.435303 1284.556152,664.073730 1286.132568,655.987000 
	C1288.388184,644.417236 1286.004395,632.023010 1292.993408,620.797485 
z"/>
<path fill="#50C7C3" opacity="1.000000" stroke="none" 
	d="
M1254.183350,957.415894 
	C1261.616943,961.115112 1264.739868,966.562134 1263.407715,974.001587 
	C1262.137451,981.095093 1255.513428,986.108093 1248.414062,985.917114 
	C1241.793213,985.739014 1235.313354,980.353455 1234.273682,974.164673 
	C1233.005127,966.613708 1237.329468,959.167908 1244.752808,957.135010 
	C1247.461304,956.393311 1250.559570,957.074951 1254.183350,957.415894 
z"/>
<path fill="#47A49F" opacity="1.000000" stroke="none" 
	d="
M1356.933105,1077.809326 
	C1361.001343,1085.346924 1364.326538,1092.997803 1367.667725,1101.379150 
	C1360.924683,1102.018433 1355.151611,1099.852783 1352.907593,1092.977417 
	C1351.155029,1087.607910 1350.421753,1081.910034 1356.933105,1077.809326 
z"/>
<path fill="#FFFFFF" opacity="1.000000" stroke="none" 
	d="
M1472.131470,1084.513672 
	C1484.764404,1084.307861 1497.397095,1084.084595 1510.030518,1083.917969 
	C1511.593018,1083.897339 1513.159424,1084.176514 1516.398071,1084.466675 
	C1510.440674,1092.943848 1505.205078,1100.394043 1499.420044,1108.233887 
	C1497.287476,1106.915527 1495.704224,1105.207397 1493.772705,1102.136963 
	C1491.409302,1097.902222 1489.394165,1095.029907 1487.309692,1092.058716 
	C1480.841919,1094.206299 1475.162964,1096.092041 1467.822388,1098.529419 
	C1468.646484,1094.593994 1468.903809,1092.512939 1469.540894,1090.555542 
	C1470.216431,1088.480347 1471.252686,1086.522705 1472.131470,1084.513672 
z"/>
<path fill="#D6F0F9" opacity="1.000000" stroke="none" 
	d="
M1471.549194,1084.189209 
	C1471.252686,1086.522705 1470.216431,1088.480347 1469.540894,1090.555542 
	C1468.903809,1092.512939 1468.646484,1094.593994 1467.822388,1098.529419 
	C1475.162964,1096.092041 1480.841919,1094.206299 1487.309692,1092.058716 
	C1489.394165,1095.029907 1491.409302,1097.902222 1493.645020,1101.425293 
	C1486.490112,1101.638184 1479.540527,1102.038330 1473.186523,1106.984497 
	C1469.978394,1109.481812 1465.367310,1110.176758 1461.521484,1111.636963 
	C1456.210571,1103.956543 1456.504883,1094.438232 1462.039917,1089.020752 
	C1463.918945,1087.181641 1466.030884,1085.580444 1468.401489,1083.125000 
	C1469.500000,1082.874634 1470.233521,1083.369629 1471.549194,1084.189209 
z"/>
<path fill="#FFFFFF" opacity="1.000000" stroke="none" 
	d="
M435.985992,1078.146484 
	C431.411865,1078.393066 429.490479,1076.844727 429.500946,1073.018433 
	C429.537872,1059.500854 429.515320,1045.983032 429.515320,1031.334717 
	C436.854218,1031.334717 443.435364,1030.783691 449.860046,1031.548096 
	C453.524719,1031.983887 457.509155,1033.889771 460.349030,1036.308594 
	C468.357910,1043.129639 469.059021,1052.286255 466.634308,1061.824951 
	C464.183136,1071.468018 456.547455,1075.231445 447.780243,1077.159424 
	C444.253571,1077.935059 440.535339,1077.839844 435.985992,1078.146484 
z"/>
<path fill="#47A49F" opacity="1.000000" stroke="none" 
	d="
M835.522217,1153.220459 
	C832.528015,1151.955933 828.920410,1150.299438 827.131226,1147.486572 
	C819.570496,1135.599976 811.730835,1123.734985 810.159363,1107.858276 
	C818.068115,1102.272827 825.704590,1098.063110 833.341064,1093.853271 
	C834.179077,1096.869385 835.703491,1099.876831 835.740906,1102.902954 
	C835.944763,1119.364990 835.781982,1135.831665 835.522217,1153.220459 
z"/>
<path fill="#C4DFF6" opacity="1.000000" stroke="none" 
	d="
M833.472839,1093.045166 
	C825.704590,1098.063110 818.068115,1102.272827 810.052734,1107.039551 
	C807.574646,1110.049805 805.475586,1112.503052 802.953613,1115.394043 
	C801.235474,1106.745117 802.184631,1098.067505 808.091736,1090.663818 
	C815.717834,1081.105713 827.607544,1081.932739 833.472839,1093.045166 
z"/>
<path fill="#FFFFFF" opacity="1.000000" stroke="none" 
	d="
M559.283569,1129.066162 
	C546.585144,1117.114990 545.165771,1099.992188 555.625000,1089.948486 
	C563.023926,1082.843506 571.962280,1081.327026 581.434753,1084.596558 
	C592.259033,1088.332642 596.955872,1097.440552 597.291870,1107.823730 
	C597.590576,1117.055176 593.368347,1125.184326 584.495911,1129.945068 
	C576.170776,1134.412231 568.029968,1134.081787 559.283569,1129.066162 
z"/>
<path fill="#D6F0F9" opacity="1.000000" stroke="none" 
	d="
M1651.520386,1096.038086 
	C1638.609253,1097.804932 1626.542236,1099.526978 1614.626587,1095.147949 
	C1617.324707,1082.229004 1623.180908,1077.899780 1637.333496,1077.935425 
	C1651.058960,1077.969971 1656.132324,1081.922729 1658.900513,1095.285278 
	C1656.685791,1095.539551 1654.524292,1095.787842 1651.520386,1096.038086 
z"/>
<path fill="#D6F0F9" opacity="1.000000" stroke="none" 
	d="
M1456.049316,1282.086914 
	C1457.757935,1319.099976 1452.329224,1354.051880 1439.949585,1387.896240 
	C1437.096069,1395.696899 1433.708740,1403.316162 1430.277100,1410.887451 
	C1427.214722,1417.644043 1424.390503,1419.337158 1420.126221,1417.740112 
	C1415.756470,1416.103638 1414.585815,1411.471313 1417.208984,1404.807007 
	C1420.375122,1396.762939 1423.974487,1388.887085 1427.047852,1380.809448 
	C1433.943970,1362.684692 1437.668579,1343.774292 1440.134888,1324.619995 
	C1445.150879,1285.665649 1440.414917,1247.701294 1428.069336,1210.562378 
	C1427.649292,1209.298828 1427.127686,1208.059082 1426.826660,1206.767822 
	C1425.921265,1202.884644 1427.758545,1199.711426 1431.105225,1198.860352 
	C1433.492554,1198.253174 1437.000000,1199.310303 1439.038940,1200.881592 
	C1440.894775,1202.312012 1441.728149,1205.345703 1442.526367,1207.828857 
	C1450.189575,1231.664185 1455.688599,1255.911499 1456.049316,1282.086914 
z"/>
<path fill="#D6F0F9" opacity="1.000000" stroke="none" 
	d="
M1350.162109,1504.286865 
	C1364.170166,1492.803711 1375.320068,1479.684814 1385.285889,1465.497925 
	C1386.614380,1463.606689 1387.780029,1461.485962 1389.481323,1459.997681 
	C1392.327881,1457.507935 1395.598267,1457.563477 1398.543335,1460.012817 
	C1401.088135,1462.129272 1402.104248,1464.835815 1400.483765,1467.987549 
	C1399.425903,1470.044922 1398.194946,1472.020508 1396.943604,1473.969971 
	C1385.521606,1491.765747 1370.994629,1506.692749 1354.486694,1519.773315 
	C1353.194092,1520.797485 1351.746582,1521.642090 1350.312134,1522.467896 
	C1347.273193,1524.217651 1344.540039,1523.582031 1342.224487,1521.118652 
	C1339.609131,1518.335571 1339.071777,1515.080566 1341.582642,1512.144409 
	C1343.935425,1509.393188 1346.875366,1507.144165 1350.162109,1504.286865 
z"/>
<path fill="#C4DFF6" opacity="1.000000" stroke="none" 
	d="
M1081.324585,1129.373779 
	C1080.402954,1120.752563 1079.308350,1112.043213 1080.362915,1103.602417 
	C1081.013184,1098.398315 1083.943970,1092.656372 1087.595337,1088.813354 
	C1096.449219,1079.494629 1109.824463,1083.717529 1112.738770,1096.186523 
	C1113.262329,1098.426758 1113.424316,1100.796387 1113.424805,1103.106323 
	C1113.427856,1116.401367 1113.331909,1129.696289 1112.895752,1143.758423 
	C1102.367676,1139.483398 1092.213257,1134.441284 1081.324585,1129.373779 
z"/>
<path fill="#47A49F" opacity="1.000000" stroke="none" 
	d="
M967.773987,1081.959595 
	C969.981628,1087.319092 972.189331,1092.678589 975.033691,1099.583740 
	C967.873779,1099.777710 962.175171,1099.994507 956.474731,1100.069458 
	C950.590332,1100.146973 944.704163,1100.086548 938.351440,1100.086548 
	C938.265747,1091.910522 942.221069,1085.677490 945.359985,1078.343018 
	C953.607666,1079.161499 960.690796,1080.560547 967.773987,1081.959595 
z"/>
<path fill="#C4DFF6" opacity="1.000000" stroke="none" 
	d="
M967.547119,1081.233032 
	C960.690796,1080.560547 953.607666,1079.161499 945.791992,1077.663330 
	C948.190125,1068.199951 951.320801,1058.835693 954.451477,1049.471313 
	C960.841125,1059.234497 964.405457,1069.740479 967.547119,1081.233032 
z"/>
<path fill="#50C7C3" opacity="1.000000" stroke="none" 
	d="
M1202.130615,1100.152710 
	C1207.195435,1086.529419 1219.480469,1080.607666 1232.042603,1085.734131 
	C1244.453125,1090.798706 1250.293335,1106.006592 1244.348389,1118.279297 
	C1243.069824,1120.918579 1240.979614,1123.164429 1237.906494,1125.575684 
	C1222.071655,1121.161743 1210.846436,1112.356934 1202.130615,1100.152710 
z"/>
<path fill="#C4DFF6" opacity="1.000000" stroke="none" 
	d="
M1201.636230,1100.749023 
	C1210.846436,1112.356934 1222.071655,1121.161743 1237.220947,1125.789062 
	C1231.017700,1132.950073 1222.992554,1133.761475 1214.377563,1130.076904 
	C1205.674072,1126.354736 1201.280273,1119.251709 1200.269409,1110.106934 
	C1199.953857,1107.253418 1200.817749,1104.269409 1201.636230,1100.749023 
z"/>
</svg>